<?xml version="1.0" encoding="UTF-8"?>
<svg xmlns="http://www.w3.org/2000/svg" xmlns:xlink="http://www.w3.org/1999/xlink" width="119px" height="24px" viewBox="0 0 118 24" version="1.1">
<g id="surface1">
<path style=" stroke:none;fill-rule:nonzero;fill:rgb(100%,100%,100%);fill-opacity:1;" d="M 4.496094 10.933594 C 4.496094 10.261719 4.617188 9.597656 4.859375 8.949219 C 5.105469 8.292969 5.457031 7.703125 5.914062 7.183594 C 6.375 6.667969 6.945312 6.253906 7.613281 5.933594 C 8.285156 5.609375 9.042969 5.449219 9.886719 5.449219 C 10.894531 5.449219 11.765625 5.667969 12.492188 6.109375 C 13.230469 6.554688 13.777344 7.132812 14.144531 7.847656 L 12.503906 8.972656 C 12.363281 8.667969 12.1875 8.40625 11.984375 8.199219 C 11.777344 7.980469 11.554688 7.816406 11.3125 7.699219 C 11.082031 7.574219 10.835938 7.480469 10.582031 7.421875 C 10.324219 7.367188 10.070312 7.335938 9.824219 7.335938 C 9.292969 7.335938 8.832031 7.445312 8.433594 7.660156 C 8.042969 7.878906 7.714844 8.160156 7.453125 8.511719 C 7.183594 8.855469 6.988281 9.246094 6.855469 9.683594 C 6.722656 10.121094 6.65625 10.558594 6.65625 10.996094 C 6.65625 11.480469 6.730469 11.949219 6.882812 12.398438 C 7.035156 12.847656 7.257812 13.246094 7.539062 13.585938 C 7.820312 13.929688 8.160156 14.203125 8.558594 14.410156 C 8.953125 14.609375 9.390625 14.710938 9.859375 14.710938 C 10.109375 14.710938 10.363281 14.683594 10.632812 14.621094 C 10.894531 14.558594 11.144531 14.457031 11.386719 14.324219 C 11.628906 14.191406 11.851562 14.019531 12.058594 13.808594 C 12.261719 13.59375 12.429688 13.335938 12.554688 13.035156 L 14.292969 14.046875 C 14.121094 14.457031 13.871094 14.820312 13.546875 15.136719 C 13.226562 15.453125 12.859375 15.71875 12.457031 15.933594 C 12.050781 16.152344 11.613281 16.320312 11.152344 16.433594 C 10.6875 16.542969 10.238281 16.597656 9.800781 16.597656 C 9.019531 16.597656 8.308594 16.433594 7.664062 16.109375 C 7.019531 15.777344 6.460938 15.34375 5.988281 14.808594 C 5.523438 14.277344 5.160156 13.671875 4.894531 12.996094 C 4.628906 12.324219 4.496094 11.636719 4.496094 10.933594 Z M 4.496094 10.933594 "/>
<path style=" stroke:none;fill-rule:nonzero;fill:rgb(100%,100%,100%);fill-opacity:1;" d="M 19.257812 16.660156 C 18.59375 16.660156 18.003906 16.546875 17.480469 16.324219 C 16.960938 16.097656 16.515625 15.792969 16.152344 15.410156 C 15.785156 15.019531 15.507812 14.570312 15.308594 14.058594 C 15.117188 13.554688 15.023438 13.019531 15.023438 12.460938 C 15.023438 11.894531 15.117188 11.359375 15.308594 10.859375 C 15.507812 10.355469 15.785156 9.90625 16.152344 9.523438 C 16.515625 9.132812 16.960938 8.824219 17.480469 8.597656 C 18.003906 8.367188 18.59375 8.246094 19.257812 8.246094 C 19.910156 8.246094 20.492188 8.367188 21.007812 8.597656 C 21.53125 8.824219 21.96875 9.132812 22.335938 9.523438 C 22.699219 9.90625 22.976562 10.355469 23.167969 10.859375 C 23.367188 11.359375 23.464844 11.894531 23.464844 12.460938 C 23.464844 13.019531 23.367188 13.554688 23.167969 14.058594 C 22.976562 14.570312 22.703125 15.019531 22.347656 15.410156 C 21.992188 15.792969 21.546875 16.097656 21.019531 16.324219 C 20.5 16.546875 19.910156 16.660156 19.257812 16.660156 Z M 17.148438 12.460938 C 17.148438 12.828125 17.199219 13.15625 17.308594 13.449219 C 17.414062 13.742188 17.5625 13.996094 17.753906 14.222656 C 17.945312 14.441406 18.167969 14.605469 18.425781 14.722656 C 18.679688 14.839844 18.960938 14.898438 19.257812 14.898438 C 19.554688 14.898438 19.832031 14.839844 20.089844 14.722656 C 20.34375 14.605469 20.566406 14.441406 20.757812 14.222656 C 20.949219 13.996094 21.097656 13.742188 21.207031 13.449219 C 21.3125 13.148438 21.367188 12.816406 21.367188 12.449219 C 21.367188 12.097656 21.3125 11.773438 21.207031 11.472656 C 21.097656 11.171875 20.949219 10.917969 20.757812 10.699219 C 20.566406 10.480469 20.34375 10.316406 20.089844 10.199219 C 19.832031 10.074219 19.554688 10.011719 19.257812 10.011719 C 18.960938 10.011719 18.679688 10.074219 18.425781 10.199219 C 18.167969 10.324219 17.945312 10.496094 17.753906 10.710938 C 17.5625 10.929688 17.414062 11.183594 17.308594 11.484375 C 17.199219 11.785156 17.148438 12.109375 17.148438 12.460938 Z M 17.148438 12.460938 "/>
<path style=" stroke:none;fill-rule:nonzero;fill:rgb(100%,100%,100%);fill-opacity:1;" d="M 28.203125 16.660156 C 27.648438 16.660156 27.136719 16.550781 26.664062 16.335938 C 26.191406 16.121094 25.785156 15.824219 25.449219 15.449219 C 25.105469 15.066406 24.84375 14.621094 24.652344 14.109375 C 24.460938 13.59375 24.367188 13.042969 24.367188 12.449219 C 24.367188 11.855469 24.453125 11.308594 24.628906 10.808594 C 24.808594 10.304688 25.054688 9.855469 25.371094 9.472656 C 25.695312 9.089844 26.074219 8.792969 26.515625 8.574219 C 26.960938 8.355469 27.445312 8.246094 27.96875 8.246094 C 28.5625 8.246094 29.097656 8.394531 29.570312 8.683594 C 30.046875 8.980469 30.425781 9.355469 30.699219 9.808594 L 30.699219 5.199219 L 32.761719 5.199219 L 32.761719 14.121094 C 32.761719 14.339844 32.792969 14.496094 32.859375 14.585938 C 32.933594 14.679688 33.058594 14.730469 33.230469 14.746094 L 33.230469 16.511719 C 32.875 16.585938 32.585938 16.621094 32.363281 16.621094 C 31.992188 16.621094 31.683594 16.527344 31.445312 16.347656 C 31.210938 16.15625 31.078125 15.910156 31.046875 15.609375 L 30.996094 15.097656 C 30.699219 15.617188 30.296875 16.007812 29.792969 16.273438 C 29.285156 16.527344 28.757812 16.660156 28.203125 16.660156 Z M 28.738281 14.898438 C 28.9375 14.898438 29.136719 14.867188 29.332031 14.796875 C 29.539062 14.730469 29.730469 14.636719 29.90625 14.511719 C 30.078125 14.386719 30.234375 14.242188 30.375 14.074219 C 30.515625 13.90625 30.625 13.730469 30.699219 13.535156 L 30.699219 11.597656 C 30.617188 11.371094 30.5 11.167969 30.351562 10.972656 C 30.203125 10.78125 30.03125 10.617188 29.84375 10.472656 C 29.648438 10.332031 29.449219 10.21875 29.234375 10.136719 C 29.027344 10.054688 28.816406 10.011719 28.613281 10.011719 C 28.304688 10.011719 28.019531 10.082031 27.757812 10.222656 C 27.5 10.355469 27.277344 10.542969 27.085938 10.773438 C 26.902344 10.996094 26.757812 11.261719 26.652344 11.558594 C 26.550781 11.859375 26.503906 12.171875 26.503906 12.496094 C 26.503906 12.839844 26.558594 13.15625 26.675781 13.449219 C 26.792969 13.730469 26.945312 13.980469 27.136719 14.199219 C 27.335938 14.417969 27.5625 14.585938 27.832031 14.710938 C 28.105469 14.835938 28.40625 14.898438 28.738281 14.898438 Z M 28.738281 14.898438 "/>
<path style=" stroke:none;fill-rule:nonzero;fill:rgb(100%,100%,100%);fill-opacity:1;" d="M 38.53125 16.660156 C 37.886719 16.660156 37.296875 16.550781 36.769531 16.335938 C 36.25 16.109375 35.800781 15.808594 35.429688 15.421875 C 35.0625 15.042969 34.785156 14.597656 34.585938 14.097656 C 34.386719 13.589844 34.285156 13.058594 34.285156 12.496094 C 34.285156 11.917969 34.378906 11.371094 34.570312 10.859375 C 34.769531 10.355469 35.050781 9.90625 35.417969 9.523438 C 35.789062 9.132812 36.238281 8.824219 36.769531 8.597656 C 37.296875 8.367188 37.890625 8.246094 38.546875 8.246094 C 39.207031 8.246094 39.792969 8.367188 40.308594 8.597656 C 40.828125 8.824219 41.269531 9.128906 41.636719 9.511719 C 42 9.886719 42.277344 10.328125 42.46875 10.835938 C 42.65625 11.34375 42.753906 11.871094 42.753906 12.421875 C 42.753906 12.558594 42.746094 12.683594 42.742188 12.808594 C 42.734375 12.933594 42.71875 13.035156 42.703125 13.109375 L 36.472656 13.109375 C 36.503906 13.433594 36.578125 13.722656 36.695312 13.972656 C 36.820312 14.214844 36.976562 14.429688 37.167969 14.609375 C 37.367188 14.785156 37.589844 14.917969 37.835938 15.011719 C 38.085938 15.105469 38.339844 15.148438 38.605469 15.148438 C 39.019531 15.148438 39.40625 15.046875 39.773438 14.847656 C 40.136719 14.648438 40.386719 14.382812 40.519531 14.046875 L 42.292969 14.546875 C 41.996094 15.167969 41.519531 15.671875 40.867188 16.074219 C 40.210938 16.464844 39.433594 16.660156 38.53125 16.660156 Z M 40.632812 11.773438 C 40.570312 11.15625 40.34375 10.667969 39.949219 10.296875 C 39.558594 9.933594 39.082031 9.746094 38.519531 9.746094 C 38.238281 9.746094 37.976562 9.796875 37.738281 9.898438 C 37.496094 9.996094 37.28125 10.136719 37.09375 10.308594 C 36.910156 10.484375 36.761719 10.699219 36.644531 10.949219 C 36.527344 11.199219 36.460938 11.472656 36.433594 11.773438 Z M 40.632812 11.773438 "/>
<path style=" stroke:none;fill-rule:nonzero;fill:rgb(100%,100%,100%);fill-opacity:1;" d="M 43.996094 5.199219 L 46.066406 5.199219 L 46.066406 13.910156 C 46.066406 14.210938 46.136719 14.445312 46.277344 14.609375 C 46.417969 14.769531 46.625 14.847656 46.898438 14.847656 C 47.015625 14.847656 47.148438 14.828125 47.296875 14.785156 C 47.445312 14.746094 47.585938 14.695312 47.71875 14.636719 L 48.003906 16.210938 C 47.722656 16.355469 47.394531 16.457031 47.023438 16.523438 C 46.65625 16.597656 46.328125 16.636719 46.03125 16.636719 C 45.386719 16.636719 44.882812 16.464844 44.527344 16.121094 C 44.171875 15.773438 43.996094 15.277344 43.996094 14.636719 Z M 43.996094 5.199219 "/>
<path style=" stroke:none;fill-rule:nonzero;fill:rgb(100%,100%,100%);fill-opacity:1;" d="M 49.0625 18.085938 C 49.234375 18.140625 49.402344 18.183594 49.570312 18.210938 C 49.734375 18.234375 49.875 18.246094 49.992188 18.246094 C 50.125 18.246094 50.246094 18.214844 50.351562 18.160156 C 50.46875 18.109375 50.570312 18.015625 50.664062 17.886719 C 50.753906 17.761719 50.84375 17.585938 50.9375 17.359375 C 51.035156 17.136719 51.136719 16.851562 51.234375 16.511719 L 48.042969 8.386719 L 50.179688 8.386719 L 52.363281 14.710938 L 54.300781 8.386719 L 56.238281 8.386719 L 52.847656 18.121094 C 52.65625 18.6875 52.328125 19.152344 51.855469 19.511719 C 51.382812 19.875 50.792969 20.058594 50.09375 20.058594 C 49.933594 20.058594 49.769531 20.046875 49.597656 20.023438 C 49.429688 19.996094 49.25 19.949219 49.0625 19.886719 Z M 49.0625 18.085938 "/>
</g>
</svg>
