<?xml version="1.0" encoding="UTF-8"?>
<svg xmlns="http://www.w3.org/2000/svg" xmlns:xlink="http://www.w3.org/1999/xlink" width="74px" height="24px" viewBox="0 0 74 24" version="1.1">
<g id="surface1">
<path style=" stroke:none;fill-rule:nonzero;fill:rgb(100%,100%,100%);fill-opacity:1;" d="M 19.113281 11.542969 C 19.113281 10.789062 19.195312 10.03125 19.363281 9.28125 C 19.527344 8.523438 19.769531 7.851562 20.085938 7.257812 C 20.40625 6.65625 20.804688 6.167969 21.269531 5.792969 C 21.738281 5.417969 22.265625 5.230469 22.859375 5.230469 C 23.558594 5.230469 24.160156 5.492188 24.65625 6.007812 C 25.160156 6.515625 25.53125 7.179688 25.769531 7.992188 L 25.15625 8.605469 C 25.03125 8.191406 24.878906 7.839844 24.695312 7.554688 C 24.511719 7.265625 24.316406 7.03125 24.113281 6.855469 C 23.902344 6.679688 23.6875 6.554688 23.464844 6.480469 C 23.246094 6.398438 23.03125 6.355469 22.8125 6.355469 C 22.339844 6.355469 21.921875 6.511719 21.558594 6.820312 C 21.195312 7.128906 20.886719 7.53125 20.640625 8.03125 C 20.390625 8.53125 20.203125 9.09375 20.078125 9.71875 C 19.953125 10.34375 19.890625 10.976562 19.890625 11.617188 C 19.890625 12.320312 19.964844 12.992188 20.117188 13.632812 C 20.265625 14.273438 20.476562 14.84375 20.742188 15.34375 C 21.003906 15.835938 21.316406 16.226562 21.675781 16.519531 C 22.03125 16.8125 22.421875 16.957031 22.84375 16.957031 C 23.066406 16.957031 23.292969 16.914062 23.527344 16.820312 C 23.761719 16.726562 23.988281 16.585938 24.207031 16.394531 C 24.421875 16.195312 24.625 15.949219 24.8125 15.65625 C 25 15.367188 25.15625 15.011719 25.28125 14.59375 L 25.925781 15.132812 C 25.796875 15.605469 25.617188 16.027344 25.390625 16.394531 C 25.160156 16.753906 24.90625 17.054688 24.625 17.304688 C 24.34375 17.554688 24.046875 17.75 23.730469 17.882812 C 23.414062 18.011719 23.105469 18.082031 22.804688 18.082031 C 22.261719 18.082031 21.765625 17.890625 21.308594 17.507812 C 20.855469 17.125 20.46875 16.628906 20.140625 16.019531 C 19.816406 15.402344 19.566406 14.707031 19.386719 13.929688 C 19.203125 13.148438 19.113281 12.351562 19.113281 11.542969 Z M 19.113281 11.542969 "/>
<path style=" stroke:none;fill-rule:nonzero;fill:rgb(100%,100%,100%);fill-opacity:1;" d="M 29.570312 18.144531 C 29.140625 18.144531 28.753906 18.019531 28.410156 17.769531 C 28.058594 17.511719 27.757812 17.164062 27.503906 16.71875 C 27.25 16.277344 27.054688 15.765625 26.914062 15.179688 C 26.773438 14.601562 26.703125 13.988281 26.703125 13.34375 C 26.703125 12.695312 26.773438 12.078125 26.914062 11.492188 C 27.058594 10.914062 27.257812 10.398438 27.511719 9.957031 C 27.773438 9.515625 28.074219 9.164062 28.425781 8.90625 C 28.769531 8.648438 29.152344 8.519531 29.570312 8.519531 C 29.984375 8.519531 30.363281 8.648438 30.714844 8.90625 C 31.066406 9.164062 31.371094 9.515625 31.625 9.957031 C 31.882812 10.398438 32.082031 10.914062 32.222656 11.492188 C 32.367188 12.078125 32.441406 12.695312 32.441406 13.34375 C 32.441406 13.988281 32.371094 14.601562 32.230469 15.179688 C 32.089844 15.765625 31.894531 16.277344 31.640625 16.71875 C 31.386719 17.164062 31.082031 17.511719 30.730469 17.769531 C 30.375 18.019531 29.988281 18.144531 29.570312 18.144531 Z M 27.464844 13.367188 C 27.464844 13.894531 27.519531 14.382812 27.628906 14.832031 C 27.742188 15.273438 27.894531 15.664062 28.082031 16.007812 C 28.273438 16.339844 28.496094 16.601562 28.75 16.792969 C 29.003906 16.988281 29.277344 17.082031 29.570312 17.082031 C 29.851562 17.082031 30.125 16.988281 30.378906 16.792969 C 30.636719 16.59375 30.863281 16.324219 31.054688 15.980469 C 31.246094 15.640625 31.398438 15.242188 31.507812 14.792969 C 31.621094 14.34375 31.679688 13.855469 31.679688 13.332031 C 31.679688 12.824219 31.621094 12.339844 31.507812 11.882812 C 31.398438 11.425781 31.246094 11.023438 31.054688 10.679688 C 30.863281 10.339844 30.636719 10.074219 30.378906 9.882812 C 30.125 9.679688 29.851562 9.582031 29.570312 9.582031 C 29.277344 9.582031 29.003906 9.679688 28.75 9.882812 C 28.503906 10.074219 28.28125 10.34375 28.089844 10.695312 C 27.898438 11.039062 27.742188 11.4375 27.628906 11.894531 C 27.519531 12.351562 27.464844 12.84375 27.464844 13.367188 Z M 27.464844 13.367188 "/>
<path style=" stroke:none;fill-rule:nonzero;fill:rgb(100%,100%,100%);fill-opacity:1;" d="M 36.085938 18.144531 C 35.683594 18.144531 35.316406 18.007812 34.972656 17.742188 C 34.632812 17.476562 34.34375 17.125 34.101562 16.679688 C 33.855469 16.242188 33.664062 15.730469 33.523438 15.15625 C 33.386719 14.582031 33.320312 13.976562 33.320312 13.34375 C 33.320312 12.695312 33.386719 12.078125 33.515625 11.492188 C 33.652344 10.902344 33.835938 10.386719 34.070312 9.945312 C 34.304688 9.503906 34.578125 9.15625 34.902344 8.90625 C 35.230469 8.648438 35.582031 8.519531 35.96875 8.519531 C 36.457031 8.519531 36.886719 8.726562 37.261719 9.132812 C 37.640625 9.539062 37.9375 10.039062 38.15625 10.617188 L 38.15625 4.945312 L 38.914062 4.945312 L 38.914062 16.394531 C 38.914062 16.726562 39 16.894531 39.175781 16.894531 L 39.175781 17.96875 C 39.066406 18 38.976562 18.019531 38.914062 18.019531 C 38.734375 18.019531 38.578125 17.929688 38.445312 17.742188 C 38.308594 17.5625 38.242188 17.339844 38.242188 17.082031 L 38.242188 16.167969 C 38.011719 16.777344 37.703125 17.261719 37.308594 17.617188 C 36.917969 17.96875 36.511719 18.144531 36.085938 18.144531 Z M 36.257812 17.082031 C 36.4375 17.082031 36.636719 17.023438 36.847656 16.90625 C 37.0625 16.78125 37.257812 16.617188 37.441406 16.40625 C 37.628906 16.199219 37.785156 15.957031 37.914062 15.679688 C 38.042969 15.398438 38.125 15.101562 38.15625 14.78125 L 38.15625 11.90625 C 38.082031 11.582031 37.972656 11.28125 37.828125 11.007812 C 37.691406 10.726562 37.527344 10.476562 37.347656 10.269531 C 37.164062 10.054688 36.96875 9.886719 36.761719 9.769531 C 36.554688 9.644531 36.351562 9.582031 36.15625 9.582031 C 35.84375 9.582031 35.558594 9.691406 35.308594 9.90625 C 35.058594 10.125 34.84375 10.40625 34.660156 10.757812 C 34.476562 11.105469 34.335938 11.507812 34.242188 11.957031 C 34.148438 12.40625 34.101562 12.867188 34.101562 13.34375 C 34.101562 13.84375 34.15625 14.324219 34.265625 14.78125 C 34.375 15.230469 34.53125 15.628906 34.722656 15.96875 C 34.914062 16.304688 35.140625 16.574219 35.402344 16.78125 C 35.664062 16.980469 35.949219 17.082031 36.257812 17.082031 Z M 36.257812 17.082031 "/>
<path style=" stroke:none;fill-rule:nonzero;fill:rgb(100%,100%,100%);fill-opacity:1;" d="M 43.121094 18.144531 C 42.699219 18.144531 42.3125 18.019531 41.960938 17.769531 C 41.605469 17.511719 41.300781 17.164062 41.042969 16.71875 C 40.78125 16.269531 40.578125 15.753906 40.433594 15.167969 C 40.292969 14.585938 40.222656 13.960938 40.222656 13.292969 C 40.222656 12.644531 40.292969 12.03125 40.433594 11.457031 C 40.578125 10.875 40.777344 10.367188 41.035156 9.929688 C 41.292969 9.5 41.597656 9.15625 41.953125 8.90625 C 42.3125 8.648438 42.695312 8.519531 43.113281 8.519531 C 43.535156 8.519531 43.917969 8.648438 44.273438 8.90625 C 44.625 9.15625 44.925781 9.503906 45.175781 9.945312 C 45.429688 10.386719 45.628906 10.894531 45.769531 11.46875 C 45.910156 12.039062 45.976562 12.640625 45.976562 13.28125 C 45.976562 13.375 45.976562 13.46875 45.976562 13.570312 C 45.976562 13.664062 45.972656 13.726562 45.960938 13.757812 L 41.011719 13.757812 C 41.03125 14.257812 41.101562 14.71875 41.222656 15.144531 C 41.34375 15.5625 41.503906 15.929688 41.695312 16.242188 C 41.890625 16.554688 42.113281 16.792969 42.359375 16.96875 C 42.605469 17.136719 42.871094 17.21875 43.152344 17.21875 C 43.339844 17.21875 43.523438 17.179688 43.703125 17.09375 C 43.890625 17.011719 44.0625 16.898438 44.21875 16.757812 C 44.375 16.617188 44.515625 16.441406 44.640625 16.230469 C 44.769531 16.023438 44.867188 15.792969 44.933594 15.542969 L 45.589844 15.832031 C 45.5 16.175781 45.371094 16.488281 45.207031 16.769531 C 45.046875 17.042969 44.855469 17.289062 44.640625 17.492188 C 44.425781 17.703125 44.191406 17.863281 43.929688 17.96875 C 43.667969 18.085938 43.402344 18.144531 43.121094 18.144531 Z M 45.253906 12.832031 C 45.234375 12.332031 45.160156 11.878906 45.035156 11.46875 C 44.914062 11.0625 44.761719 10.707031 44.570312 10.40625 C 44.382812 10.105469 44.164062 9.875 43.914062 9.707031 C 43.664062 9.539062 43.402344 9.457031 43.121094 9.457031 C 42.839844 9.457031 42.570312 9.539062 42.320312 9.707031 C 42.070312 9.875 41.847656 10.105469 41.65625 10.40625 C 41.46875 10.707031 41.316406 11.066406 41.207031 11.480469 C 41.089844 11.898438 41.023438 12.351562 41.003906 12.832031 Z M 45.253906 12.832031 "/>
<path style=" stroke:none;fill-rule:nonzero;fill:rgb(100%,100%,100%);fill-opacity:1;" d="M 47.175781 4.945312 L 47.929688 4.945312 L 47.929688 15.867188 C 47.929688 16.210938 47.988281 16.480469 48.109375 16.679688 C 48.226562 16.875 48.394531 16.96875 48.605469 16.96875 C 48.6875 16.96875 48.785156 16.953125 48.894531 16.917969 C 49.007812 16.886719 49.113281 16.835938 49.207031 16.769531 L 49.347656 17.757812 C 49.199219 17.851562 49.027344 17.925781 48.824219 17.980469 C 48.621094 18.046875 48.445312 18.082031 48.296875 18.082031 C 47.945312 18.082031 47.671875 17.925781 47.46875 17.605469 C 47.273438 17.289062 47.175781 16.84375 47.175781 16.269531 Z M 47.175781 4.945312 "/>
<path style=" stroke:none;fill-rule:nonzero;fill:rgb(100%,100%,100%);fill-opacity:1;" d="M 50.5 20.820312 C 50.554688 20.835938 50.613281 20.84375 50.671875 20.84375 C 50.726562 20.851562 50.78125 20.855469 50.835938 20.855469 C 50.964844 20.855469 51.066406 20.824219 51.144531 20.769531 C 51.222656 20.710938 51.296875 20.574219 51.371094 20.367188 C 51.449219 20.167969 51.535156 19.875 51.628906 19.492188 C 51.722656 19.117188 51.851562 18.609375 52.019531 17.96875 L 49.496094 8.679688 L 50.273438 8.679688 L 52.421875 16.84375 L 54.410156 8.679688 L 55.132812 8.679688 L 52.136719 20.65625 C 52.050781 21.007812 51.914062 21.304688 51.722656 21.554688 C 51.535156 21.8125 51.277344 21.945312 50.953125 21.945312 C 50.878906 21.945312 50.808594 21.9375 50.742188 21.929688 C 50.671875 21.929688 50.59375 21.917969 50.5 21.894531 Z M 50.5 20.820312 "/>
</g>
</svg>
