<svg xmlns="http://www.w3.org/2000/svg" xmlns:xlink="http://www.w3.org/1999/xlink" width="198" zoomAndPan="magnify" viewBox="0 0 148.5 30.000001" height="40" preserveAspectRatio="xMidYMid meet" version="1.0"><defs><g/></defs><g fill="#ffffff" fill-opacity="1"><g transform="translate(37.418142, 22.461175)"><g><path d="M 0.9375 -8.03125 C 0.9375 -8.976562 1.101562 -9.921875 1.4375 -10.859375 C 1.769531 -11.804688 2.253906 -12.648438 2.890625 -13.390625 C 3.535156 -14.140625 4.328125 -14.75 5.265625 -15.21875 C 6.203125 -15.6875 7.265625 -15.921875 8.453125 -15.921875 C 9.859375 -15.921875 11.0625 -15.597656 12.0625 -14.953125 C 13.070312 -14.316406 13.816406 -13.488281 14.296875 -12.46875 L 13.0625 -11.703125 C 12.8125 -12.222656 12.503906 -12.660156 12.140625 -13.015625 C 11.773438 -13.378906 11.382812 -13.671875 10.96875 -13.890625 C 10.550781 -14.109375 10.117188 -14.265625 9.671875 -14.359375 C 9.234375 -14.460938 8.796875 -14.515625 8.359375 -14.515625 C 7.410156 -14.515625 6.570312 -14.320312 5.84375 -13.9375 C 5.113281 -13.550781 4.5 -13.046875 4 -12.421875 C 3.5 -11.796875 3.125 -11.09375 2.875 -10.3125 C 2.625 -9.53125 2.5 -8.738281 2.5 -7.9375 C 2.5 -7.0625 2.648438 -6.222656 2.953125 -5.421875 C 3.253906 -4.617188 3.671875 -3.90625 4.203125 -3.28125 C 4.734375 -2.664062 5.359375 -2.175781 6.078125 -1.8125 C 6.796875 -1.445312 7.578125 -1.265625 8.421875 -1.265625 C 8.867188 -1.265625 9.328125 -1.320312 9.796875 -1.4375 C 10.265625 -1.550781 10.71875 -1.726562 11.15625 -1.96875 C 11.59375 -2.21875 12 -2.523438 12.375 -2.890625 C 12.75 -3.253906 13.0625 -3.695312 13.3125 -4.21875 L 14.609375 -3.546875 C 14.347656 -2.953125 13.988281 -2.425781 13.53125 -1.96875 C 13.070312 -1.519531 12.5625 -1.140625 12 -0.828125 C 11.4375 -0.515625 10.835938 -0.273438 10.203125 -0.109375 C 9.566406 0.0546875 8.945312 0.140625 8.34375 0.140625 C 7.257812 0.140625 6.257812 -0.0976562 5.34375 -0.578125 C 4.4375 -1.054688 3.65625 -1.675781 3 -2.4375 C 2.351562 -3.207031 1.847656 -4.078125 1.484375 -5.046875 C 1.117188 -6.023438 0.9375 -7.019531 0.9375 -8.03125 Z M 0.9375 -8.03125 "/></g></g></g><g fill="#ffffff" fill-opacity="1"><g transform="translate(52.712518, 22.461175)"><g><path d="M 6.625 0.21875 C 5.769531 0.21875 4.992188 0.0625 4.296875 -0.25 C 3.597656 -0.570312 2.992188 -1.007812 2.484375 -1.5625 C 1.972656 -2.113281 1.578125 -2.753906 1.296875 -3.484375 C 1.015625 -4.210938 0.875 -4.976562 0.875 -5.78125 C 0.875 -6.59375 1.015625 -7.363281 1.296875 -8.09375 C 1.585938 -8.820312 1.988281 -9.460938 2.5 -10.015625 C 3.019531 -10.566406 3.628906 -11.003906 4.328125 -11.328125 C 5.023438 -11.648438 5.789062 -11.8125 6.625 -11.8125 C 7.457031 -11.8125 8.222656 -11.648438 8.921875 -11.328125 C 9.628906 -11.003906 10.238281 -10.566406 10.75 -10.015625 C 11.269531 -9.460938 11.671875 -8.820312 11.953125 -8.09375 C 12.242188 -7.363281 12.390625 -6.59375 12.390625 -5.78125 C 12.390625 -4.976562 12.25 -4.210938 11.96875 -3.484375 C 11.6875 -2.753906 11.289062 -2.113281 10.78125 -1.5625 C 10.269531 -1.007812 9.660156 -0.570312 8.953125 -0.25 C 8.242188 0.0625 7.46875 0.21875 6.625 0.21875 Z M 2.40625 -5.75 C 2.40625 -5.09375 2.515625 -4.484375 2.734375 -3.921875 C 2.960938 -3.367188 3.265625 -2.878906 3.640625 -2.453125 C 4.023438 -2.035156 4.472656 -1.707031 4.984375 -1.46875 C 5.492188 -1.226562 6.039062 -1.109375 6.625 -1.109375 C 7.195312 -1.109375 7.738281 -1.226562 8.25 -1.46875 C 8.769531 -1.71875 9.222656 -2.054688 9.609375 -2.484375 C 9.992188 -2.910156 10.296875 -3.40625 10.515625 -3.96875 C 10.742188 -4.53125 10.859375 -5.140625 10.859375 -5.796875 C 10.859375 -6.429688 10.742188 -7.035156 10.515625 -7.609375 C 10.296875 -8.179688 9.992188 -8.679688 9.609375 -9.109375 C 9.222656 -9.535156 8.769531 -9.867188 8.25 -10.109375 C 7.738281 -10.359375 7.195312 -10.484375 6.625 -10.484375 C 6.039062 -10.484375 5.492188 -10.359375 4.984375 -10.109375 C 4.484375 -9.867188 4.039062 -9.53125 3.65625 -9.09375 C 3.269531 -8.664062 2.960938 -8.164062 2.734375 -7.59375 C 2.515625 -7.019531 2.40625 -6.40625 2.40625 -5.75 Z M 2.40625 -5.75 "/></g></g></g><g fill="#ffffff" fill-opacity="1"><g transform="translate(65.978037, 22.461175)"><g><path d="M 6.4375 0.21875 C 5.632812 0.21875 4.890625 0.0507812 4.203125 -0.28125 C 3.523438 -0.613281 2.941406 -1.054688 2.453125 -1.609375 C 1.960938 -2.160156 1.578125 -2.796875 1.296875 -3.515625 C 1.023438 -4.234375 0.890625 -4.988281 0.890625 -5.78125 C 0.890625 -6.59375 1.019531 -7.363281 1.28125 -8.09375 C 1.550781 -8.832031 1.921875 -9.476562 2.390625 -10.03125 C 2.859375 -10.582031 3.414062 -11.015625 4.0625 -11.328125 C 4.71875 -11.648438 5.429688 -11.8125 6.203125 -11.8125 C 7.179688 -11.8125 8.046875 -11.554688 8.796875 -11.046875 C 9.554688 -10.535156 10.15625 -9.914062 10.59375 -9.1875 L 10.59375 -16.28125 L 12.109375 -16.28125 L 12.109375 -1.96875 C 12.109375 -1.550781 12.285156 -1.34375 12.640625 -1.34375 L 12.640625 0 C 12.421875 0.0390625 12.242188 0.0625 12.109375 0.0625 C 11.753906 0.0625 11.441406 -0.0507812 11.171875 -0.28125 C 10.898438 -0.507812 10.765625 -0.785156 10.765625 -1.109375 L 10.765625 -2.25 C 10.304688 -1.488281 9.679688 -0.882812 8.890625 -0.4375 C 8.109375 0 7.289062 0.21875 6.4375 0.21875 Z M 6.78125 -1.109375 C 7.144531 -1.109375 7.539062 -1.179688 7.96875 -1.328125 C 8.394531 -1.484375 8.789062 -1.691406 9.15625 -1.953125 C 9.53125 -2.210938 9.847656 -2.515625 10.109375 -2.859375 C 10.367188 -3.210938 10.53125 -3.585938 10.59375 -3.984375 L 10.59375 -7.578125 C 10.445312 -7.984375 10.226562 -8.359375 9.9375 -8.703125 C 9.65625 -9.054688 9.332031 -9.363281 8.96875 -9.625 C 8.601562 -9.894531 8.210938 -10.101562 7.796875 -10.25 C 7.378906 -10.40625 6.972656 -10.484375 6.578125 -10.484375 C 5.953125 -10.484375 5.382812 -10.347656 4.875 -10.078125 C 4.375 -9.804688 3.941406 -9.453125 3.578125 -9.015625 C 3.210938 -8.578125 2.929688 -8.078125 2.734375 -7.515625 C 2.546875 -6.953125 2.453125 -6.375 2.453125 -5.78125 C 2.453125 -5.15625 2.5625 -4.554688 2.78125 -3.984375 C 3.007812 -3.421875 3.316406 -2.925781 3.703125 -2.5 C 4.085938 -2.082031 4.539062 -1.742188 5.0625 -1.484375 C 5.59375 -1.234375 6.164062 -1.109375 6.78125 -1.109375 Z M 6.78125 -1.109375 "/></g></g></g><g fill="#ffffff" fill-opacity="1"><g transform="translate(79.845533, 22.461175)"><g><path d="M 6.6875 0.21875 C 5.84375 0.21875 5.066406 0.0625 4.359375 -0.25 C 3.648438 -0.570312 3.035156 -1.007812 2.515625 -1.5625 C 1.992188 -2.125 1.585938 -2.769531 1.296875 -3.5 C 1.015625 -4.226562 0.875 -5.007812 0.875 -5.84375 C 0.875 -6.65625 1.015625 -7.421875 1.296875 -8.140625 C 1.585938 -8.867188 1.988281 -9.503906 2.5 -10.046875 C 3.019531 -10.585938 3.632812 -11.015625 4.34375 -11.328125 C 5.0625 -11.648438 5.835938 -11.8125 6.671875 -11.8125 C 7.515625 -11.8125 8.289062 -11.648438 9 -11.328125 C 9.707031 -11.015625 10.3125 -10.582031 10.8125 -10.03125 C 11.320312 -9.476562 11.71875 -8.84375 12 -8.125 C 12.28125 -7.414062 12.421875 -6.660156 12.421875 -5.859375 C 12.421875 -5.742188 12.421875 -5.625 12.421875 -5.5 C 12.421875 -5.382812 12.410156 -5.304688 12.390625 -5.265625 L 2.453125 -5.265625 C 2.492188 -4.640625 2.632812 -4.0625 2.875 -3.53125 C 3.125 -3.007812 3.441406 -2.550781 3.828125 -2.15625 C 4.222656 -1.769531 4.664062 -1.46875 5.15625 -1.25 C 5.65625 -1.039062 6.1875 -0.9375 6.75 -0.9375 C 7.125 -0.9375 7.492188 -0.988281 7.859375 -1.09375 C 8.234375 -1.195312 8.578125 -1.335938 8.890625 -1.515625 C 9.203125 -1.691406 9.484375 -1.910156 9.734375 -2.171875 C 9.992188 -2.429688 10.191406 -2.71875 10.328125 -3.03125 L 11.640625 -2.671875 C 11.460938 -2.242188 11.207031 -1.851562 10.875 -1.5 C 10.550781 -1.15625 10.171875 -0.851562 9.734375 -0.59375 C 9.304688 -0.332031 8.832031 -0.132812 8.3125 0 C 7.789062 0.144531 7.25 0.21875 6.6875 0.21875 Z M 10.96875 -6.421875 C 10.925781 -7.046875 10.78125 -7.613281 10.53125 -8.125 C 10.289062 -8.632812 9.976562 -9.078125 9.59375 -9.453125 C 9.21875 -9.828125 8.78125 -10.117188 8.28125 -10.328125 C 7.78125 -10.535156 7.25 -10.640625 6.6875 -10.640625 C 6.125 -10.640625 5.585938 -10.535156 5.078125 -10.328125 C 4.578125 -10.117188 4.132812 -9.828125 3.75 -9.453125 C 3.375 -9.078125 3.070312 -8.628906 2.84375 -8.109375 C 2.613281 -7.585938 2.476562 -7.023438 2.4375 -6.421875 Z M 10.96875 -6.421875 "/></g></g></g><g fill="#ffffff" fill-opacity="1"><g transform="translate(92.93269, 22.461175)"><g><path d="M 1.734375 -16.28125 L 3.25 -16.28125 L 3.25 -2.625 C 3.25 -2.195312 3.367188 -1.859375 3.609375 -1.609375 C 3.847656 -1.367188 4.179688 -1.25 4.609375 -1.25 C 4.773438 -1.25 4.96875 -1.269531 5.1875 -1.3125 C 5.414062 -1.351562 5.625 -1.414062 5.8125 -1.5 L 6.09375 -0.265625 C 5.800781 -0.148438 5.453125 -0.0546875 5.046875 0.015625 C 4.640625 0.0976562 4.285156 0.140625 3.984375 0.140625 C 3.285156 0.140625 2.734375 -0.0546875 2.328125 -0.453125 C 1.929688 -0.847656 1.734375 -1.40625 1.734375 -2.125 Z M 1.734375 -16.28125 "/></g></g></g><g fill="#ffffff" fill-opacity="1"><g transform="translate(98.996933, 22.461175)"><g><path d="M 2.34375 3.5625 C 2.457031 3.582031 2.570312 3.59375 2.6875 3.59375 C 2.800781 3.601562 2.910156 3.609375 3.015625 3.609375 C 3.273438 3.609375 3.484375 3.570312 3.640625 3.5 C 3.796875 3.425781 3.945312 3.257812 4.09375 3 C 4.25 2.75 4.421875 2.382812 4.609375 1.90625 C 4.796875 1.4375 5.054688 0.800781 5.390625 0 L 0.328125 -11.609375 L 1.890625 -11.609375 L 6.203125 -1.40625 L 10.1875 -11.609375 L 11.640625 -11.609375 L 5.625 3.359375 C 5.457031 3.796875 5.179688 4.171875 4.796875 4.484375 C 4.421875 4.804688 3.90625 4.96875 3.25 4.96875 C 3.101562 4.96875 2.960938 4.960938 2.828125 4.953125 C 2.691406 4.953125 2.53125 4.9375 2.34375 4.90625 Z M 2.34375 3.5625 "/></g></g></g></svg>