<svg id="visual" viewBox="0 0 900 600" width="900" height="600" xmlns="http://www.w3.org/2000/svg" xmlns:xlink="http://www.w3.org/1999/xlink" version="1.1"><rect x="0" y="0" width="900" height="600" fill="#3b2e74"></rect><path d="M0 406L21.5 424.7C43 443.3 86 480.7 128.8 477.2C171.7 473.7 214.3 429.3 257.2 424C300 418.7 343 452.3 385.8 464.5C428.7 476.7 471.3 467.3 514.2 451C557 434.7 600 411.3 642.8 416.8C685.7 422.3 728.3 456.7 771.2 467.3C814 478 857 465 878.5 458.5L900 452L900 601L878.5 601C857 601 814 601 771.2 601C728.3 601 685.7 601 642.8 601C600 601 557 601 514.2 601C471.3 601 428.7 601 385.8 601C343 601 300 601 257.2 601C214.3 601 171.7 601 128.8 601C86 601 43 601 21.5 601L0 601Z" fill="#372b70" stroke-linecap="round" stroke-linejoin="miter"></path></svg>