<svg xmlns="http://www.w3.org/2000/svg" xmlns:xlink="http://www.w3.org/1999/xlink" width="198" zoomAndPan="magnify" viewBox="0 0 148.5 30.000001" height="40" preserveAspectRatio="xMidYMid meet" version="1.0"><defs><g/></defs><g fill="#373174" fill-opacity="1"><g transform="translate(5.066224, 20.637529)"><g><path d="M 0.59375 -6.96875 C 0.59375 -7.8125 0.742188 -8.640625 1.046875 -9.453125 C 1.359375 -10.273438 1.800781 -11.007812 2.375 -11.65625 C 2.957031 -12.300781 3.671875 -12.820312 4.515625 -13.21875 C 5.359375 -13.625 6.3125 -13.828125 7.375 -13.828125 C 8.644531 -13.828125 9.738281 -13.550781 10.65625 -13 C 11.582031 -12.445312 12.273438 -11.722656 12.734375 -10.828125 L 10.671875 -9.421875 C 10.492188 -9.804688 10.273438 -10.128906 10.015625 -10.390625 C 9.753906 -10.660156 9.472656 -10.867188 9.171875 -11.015625 C 8.878906 -11.171875 8.570312 -11.285156 8.25 -11.359375 C 7.925781 -11.429688 7.609375 -11.46875 7.296875 -11.46875 C 6.628906 -11.46875 6.046875 -11.332031 5.546875 -11.0625 C 5.054688 -10.789062 4.644531 -10.4375 4.3125 -10 C 3.976562 -9.570312 3.726562 -9.082031 3.5625 -8.53125 C 3.394531 -7.988281 3.3125 -7.441406 3.3125 -6.890625 C 3.3125 -6.285156 3.40625 -5.703125 3.59375 -5.140625 C 3.789062 -4.578125 4.066406 -4.082031 4.421875 -3.65625 C 4.773438 -3.226562 5.203125 -2.882812 5.703125 -2.625 C 6.203125 -2.375 6.75 -2.25 7.34375 -2.25 C 7.65625 -2.25 7.976562 -2.285156 8.3125 -2.359375 C 8.644531 -2.441406 8.960938 -2.566406 9.265625 -2.734375 C 9.566406 -2.898438 9.847656 -3.113281 10.109375 -3.375 C 10.367188 -3.644531 10.578125 -3.96875 10.734375 -4.34375 L 12.921875 -3.078125 C 12.703125 -2.566406 12.390625 -2.113281 11.984375 -1.71875 C 11.578125 -1.320312 11.117188 -0.988281 10.609375 -0.71875 C 10.097656 -0.445312 9.550781 -0.238281 8.96875 -0.09375 C 8.382812 0.0390625 7.816406 0.109375 7.265625 0.109375 C 6.285156 0.109375 5.390625 -0.09375 4.578125 -0.5 C 3.765625 -0.914062 3.0625 -1.457031 2.46875 -2.125 C 1.882812 -2.789062 1.425781 -3.546875 1.09375 -4.390625 C 0.757812 -5.234375 0.59375 -6.09375 0.59375 -6.96875 Z M 0.59375 -6.96875 "/></g></g></g><g fill="#373174" fill-opacity="1"><g transform="translate(18.359747, 20.637529)"><g><path d="M 5.875 0.1875 C 5.039062 0.1875 4.296875 0.046875 3.640625 -0.234375 C 2.984375 -0.515625 2.425781 -0.894531 1.96875 -1.375 C 1.507812 -1.863281 1.15625 -2.425781 0.90625 -3.0625 C 0.664062 -3.695312 0.546875 -4.363281 0.546875 -5.0625 C 0.546875 -5.769531 0.664062 -6.4375 0.90625 -7.0625 C 1.15625 -7.695312 1.507812 -8.253906 1.96875 -8.734375 C 2.425781 -9.222656 2.984375 -9.609375 3.640625 -9.890625 C 4.296875 -10.179688 5.039062 -10.328125 5.875 -10.328125 C 6.695312 -10.328125 7.429688 -10.179688 8.078125 -9.890625 C 8.734375 -9.609375 9.289062 -9.222656 9.75 -8.734375 C 10.207031 -8.253906 10.554688 -7.695312 10.796875 -7.0625 C 11.046875 -6.4375 11.171875 -5.769531 11.171875 -5.0625 C 11.171875 -4.363281 11.046875 -3.695312 10.796875 -3.0625 C 10.554688 -2.425781 10.210938 -1.863281 9.765625 -1.375 C 9.316406 -0.894531 8.757812 -0.515625 8.09375 -0.234375 C 7.4375 0.046875 6.695312 0.1875 5.875 0.1875 Z M 3.21875 -5.0625 C 3.21875 -4.601562 3.285156 -4.191406 3.421875 -3.828125 C 3.554688 -3.460938 3.742188 -3.140625 3.984375 -2.859375 C 4.222656 -2.585938 4.503906 -2.378906 4.828125 -2.234375 C 5.148438 -2.085938 5.5 -2.015625 5.875 -2.015625 C 6.25 -2.015625 6.597656 -2.085938 6.921875 -2.234375 C 7.242188 -2.378906 7.523438 -2.585938 7.765625 -2.859375 C 8.003906 -3.140625 8.191406 -3.460938 8.328125 -3.828125 C 8.460938 -4.203125 8.53125 -4.617188 8.53125 -5.078125 C 8.53125 -5.515625 8.460938 -5.921875 8.328125 -6.296875 C 8.191406 -6.671875 8.003906 -6.992188 7.765625 -7.265625 C 7.523438 -7.535156 7.242188 -7.742188 6.921875 -7.890625 C 6.597656 -8.046875 6.25 -8.125 5.875 -8.125 C 5.5 -8.125 5.148438 -8.046875 4.828125 -7.890625 C 4.503906 -7.734375 4.222656 -7.519531 3.984375 -7.25 C 3.742188 -6.976562 3.554688 -6.65625 3.421875 -6.28125 C 3.285156 -5.90625 3.21875 -5.5 3.21875 -5.0625 Z M 3.21875 -5.0625 "/></g></g></g><g fill="#373174" fill-opacity="1"><g transform="translate(30.103005, 20.637529)"><g><path d="M 5.390625 0.1875 C 4.691406 0.1875 4.046875 0.0507812 3.453125 -0.21875 C 2.859375 -0.488281 2.347656 -0.859375 1.921875 -1.328125 C 1.492188 -1.804688 1.160156 -2.363281 0.921875 -3 C 0.679688 -3.644531 0.5625 -4.335938 0.5625 -5.078125 C 0.5625 -5.816406 0.671875 -6.5 0.890625 -7.125 C 1.117188 -7.757812 1.429688 -8.316406 1.828125 -8.796875 C 2.234375 -9.273438 2.710938 -9.648438 3.265625 -9.921875 C 3.828125 -10.191406 4.4375 -10.328125 5.09375 -10.328125 C 5.84375 -10.328125 6.515625 -10.144531 7.109375 -9.78125 C 7.710938 -9.414062 8.1875 -8.945312 8.53125 -8.375 L 8.53125 -14.140625 L 11.125 -14.140625 L 11.125 -2.984375 C 11.125 -2.710938 11.164062 -2.519531 11.25 -2.40625 C 11.34375 -2.289062 11.5 -2.222656 11.71875 -2.203125 L 11.71875 0 C 11.269531 0.09375 10.90625 0.140625 10.625 0.140625 C 10.15625 0.140625 9.769531 0.0234375 9.46875 -0.203125 C 9.175781 -0.441406 9.007812 -0.75 8.96875 -1.125 L 8.90625 -1.765625 C 8.53125 -1.117188 8.023438 -0.628906 7.390625 -0.296875 C 6.753906 0.0234375 6.085938 0.1875 5.390625 0.1875 Z M 6.0625 -2.015625 C 6.3125 -2.015625 6.5625 -2.054688 6.8125 -2.140625 C 7.070312 -2.222656 7.3125 -2.34375 7.53125 -2.5 C 7.75 -2.65625 7.945312 -2.835938 8.125 -3.046875 C 8.300781 -3.253906 8.4375 -3.476562 8.53125 -3.71875 L 8.53125 -6.140625 C 8.425781 -6.421875 8.28125 -6.679688 8.09375 -6.921875 C 7.90625 -7.160156 7.691406 -7.367188 7.453125 -7.546875 C 7.210938 -7.722656 6.957031 -7.863281 6.6875 -7.96875 C 6.425781 -8.070312 6.164062 -8.125 5.90625 -8.125 C 5.519531 -8.125 5.160156 -8.035156 4.828125 -7.859375 C 4.503906 -7.691406 4.222656 -7.460938 3.984375 -7.171875 C 3.753906 -6.890625 3.570312 -6.5625 3.4375 -6.1875 C 3.3125 -5.8125 3.25 -5.421875 3.25 -5.015625 C 3.25 -4.585938 3.320312 -4.191406 3.46875 -3.828125 C 3.613281 -3.472656 3.804688 -3.160156 4.046875 -2.890625 C 4.296875 -2.617188 4.585938 -2.40625 4.921875 -2.25 C 5.265625 -2.09375 5.644531 -2.015625 6.0625 -2.015625 Z M 6.0625 -2.015625 "/></g></g></g><g fill="#373174" fill-opacity="1"><g transform="translate(42.602015, 20.637529)"><g><path d="M 5.890625 0.1875 C 5.078125 0.1875 4.335938 0.0507812 3.671875 -0.21875 C 3.015625 -0.5 2.453125 -0.878906 1.984375 -1.359375 C 1.523438 -1.835938 1.171875 -2.390625 0.921875 -3.015625 C 0.671875 -3.648438 0.546875 -4.316406 0.546875 -5.015625 C 0.546875 -5.742188 0.664062 -6.425781 0.90625 -7.0625 C 1.15625 -7.695312 1.507812 -8.253906 1.96875 -8.734375 C 2.4375 -9.222656 3.003906 -9.609375 3.671875 -9.890625 C 4.335938 -10.179688 5.082031 -10.328125 5.90625 -10.328125 C 6.738281 -10.328125 7.476562 -10.179688 8.125 -9.890625 C 8.78125 -9.609375 9.335938 -9.226562 9.796875 -8.75 C 10.253906 -8.28125 10.601562 -7.726562 10.84375 -7.09375 C 11.082031 -6.457031 11.203125 -5.796875 11.203125 -5.109375 C 11.203125 -4.941406 11.195312 -4.78125 11.1875 -4.625 C 11.175781 -4.46875 11.160156 -4.34375 11.140625 -4.25 L 3.296875 -4.25 C 3.335938 -3.84375 3.429688 -3.484375 3.578125 -3.171875 C 3.734375 -2.867188 3.929688 -2.601562 4.171875 -2.375 C 4.421875 -2.15625 4.703125 -1.988281 5.015625 -1.875 C 5.328125 -1.757812 5.648438 -1.703125 5.984375 -1.703125 C 6.503906 -1.703125 6.992188 -1.828125 7.453125 -2.078125 C 7.910156 -2.328125 8.222656 -2.660156 8.390625 -3.078125 L 10.625 -2.453125 C 10.25 -1.679688 9.648438 -1.046875 8.828125 -0.546875 C 8.003906 -0.0546875 7.023438 0.1875 5.890625 0.1875 Z M 8.53125 -5.921875 C 8.457031 -6.691406 8.171875 -7.304688 7.671875 -7.765625 C 7.179688 -8.222656 6.582031 -8.453125 5.875 -8.453125 C 5.519531 -8.453125 5.191406 -8.390625 4.890625 -8.265625 C 4.585938 -8.140625 4.316406 -7.96875 4.078125 -7.75 C 3.847656 -7.53125 3.660156 -7.265625 3.515625 -6.953125 C 3.367188 -6.640625 3.28125 -6.296875 3.25 -5.921875 Z M 8.53125 -5.921875 "/></g></g></g><g fill="#373174" fill-opacity="1"><g transform="translate(54.209626, 20.637529)"><g><path d="M 1.15625 -14.140625 L 3.765625 -14.140625 L 3.765625 -3.25 C 3.765625 -2.875 3.851562 -2.582031 4.03125 -2.375 C 4.207031 -2.175781 4.46875 -2.078125 4.8125 -2.078125 C 4.957031 -2.078125 5.125 -2.101562 5.3125 -2.15625 C 5.5 -2.207031 5.675781 -2.269531 5.84375 -2.34375 L 6.203125 -0.375 C 5.847656 -0.195312 5.4375 -0.0664062 4.96875 0.015625 C 4.507812 0.109375 4.09375 0.15625 3.71875 0.15625 C 2.90625 0.15625 2.273438 -0.0546875 1.828125 -0.484375 C 1.378906 -0.921875 1.15625 -1.539062 1.15625 -2.34375 Z M 1.15625 -14.140625 "/></g></g></g><g fill="#373174" fill-opacity="1"><g transform="translate(60.352548, 20.637529)"><g><path d="M 1.390625 1.96875 C 1.609375 2.039062 1.820312 2.09375 2.03125 2.125 C 2.238281 2.15625 2.414062 2.171875 2.5625 2.171875 C 2.726562 2.171875 2.878906 2.132812 3.015625 2.0625 C 3.160156 2 3.289062 1.882812 3.40625 1.71875 C 3.519531 1.5625 3.632812 1.34375 3.75 1.0625 C 3.875 0.78125 4 0.425781 4.125 0 L 0.109375 -10.15625 L 2.796875 -10.15625 L 5.546875 -2.25 L 7.984375 -10.15625 L 10.421875 -10.15625 L 6.15625 2.015625 C 5.914062 2.722656 5.5 3.300781 4.90625 3.75 C 4.3125 4.207031 3.570312 4.4375 2.6875 4.4375 C 2.488281 4.4375 2.28125 4.421875 2.0625 4.390625 C 1.851562 4.359375 1.628906 4.300781 1.390625 4.21875 Z M 1.390625 1.96875 "/></g></g></g></svg>