<svg xmlns="http://www.w3.org/2000/svg" xmlns:xlink="http://www.w3.org/1999/xlink" width="350" zoomAndPan="magnify" viewBox="0 0 262.5 135.000003" height="180" preserveAspectRatio="xMidYMid meet" version="1.0"><path fill="#757ed1" d="M 170.734375 47.59375 C 170.625 47.394531 170.480469 47.21875 170.300781 47.074219 C 170.121094 46.929688 169.917969 46.824219 169.699219 46.761719 C 169.480469 46.695312 169.253906 46.671875 169.023438 46.695312 C 168.796875 46.71875 168.578125 46.785156 168.375 46.894531 C 168.171875 47 167.996094 47.144531 167.851562 47.320312 C 167.703125 47.5 167.59375 47.695312 167.527344 47.917969 C 167.457031 48.136719 167.429688 48.363281 167.449219 48.589844 C 167.46875 48.820312 167.53125 49.039062 167.632812 49.246094 C 183.785156 79.007812 161.09375 116.761719 127.238281 116.328125 C 125.746094 116.328125 124.253906 116.253906 122.765625 116.105469 C 121.277344 115.957031 119.804688 115.734375 118.335938 115.441406 C 116.871094 115.148438 115.421875 114.78125 113.992188 114.347656 C 112.5625 113.910156 111.160156 113.40625 109.777344 112.832031 C 108.398438 112.257812 107.046875 111.617188 105.730469 110.910156 C 104.414062 110.203125 103.132812 109.433594 101.890625 108.601562 C 100.648438 107.769531 99.449219 106.875 98.292969 105.925781 C 97.136719 104.972656 96.03125 103.96875 94.976562 102.910156 C 93.917969 101.851562 92.917969 100.742188 91.96875 99.582031 C 91.019531 98.425781 90.128906 97.222656 89.300781 95.976562 C 88.46875 94.730469 87.699219 93.449219 86.996094 92.128906 C 86.289062 90.804688 85.652344 89.453125 85.078125 88.070312 C 84.507812 86.683594 84.003906 85.277344 83.566406 83.84375 C 83.132812 82.410156 82.769531 80.957031 82.476562 79.488281 C 82.183594 78.019531 81.964844 76.539062 81.816406 75.046875 C 81.667969 73.558594 81.59375 72.0625 81.589844 70.5625 C 81.167969 36.625 118.8125 13.875 148.503906 30.066406 C 148.710938 30.175781 148.929688 30.242188 149.160156 30.265625 C 149.394531 30.285156 149.621094 30.261719 149.84375 30.195312 C 150.066406 30.125 150.265625 30.019531 150.445312 29.871094 C 150.625 29.71875 150.769531 29.542969 150.878906 29.335938 C 150.988281 29.128906 151.054688 28.910156 151.074219 28.679688 C 151.097656 28.445312 151.074219 28.21875 151.007812 27.996094 C 150.9375 27.773438 150.828125 27.570312 150.679688 27.390625 C 150.53125 27.210938 150.355469 27.066406 150.148438 26.957031 C 149.328125 26.523438 148.496094 26.113281 147.648438 25.726562 C 146.804688 25.339844 145.949219 24.976562 145.085938 24.640625 C 144.21875 24.300781 143.34375 23.988281 142.460938 23.699219 C 141.578125 23.410156 140.6875 23.148438 139.789062 22.910156 C 138.890625 22.671875 137.988281 22.460938 137.078125 22.273438 C 136.167969 22.089844 135.253906 21.929688 134.335938 21.792969 C 133.414062 21.660156 132.492188 21.550781 131.566406 21.46875 C 130.644531 21.386719 129.714844 21.332031 128.789062 21.300781 C 127.859375 21.273438 126.929688 21.269531 126.003906 21.292969 C 125.074219 21.316406 124.148438 21.367188 123.222656 21.441406 C 122.296875 21.519531 121.375 21.621094 120.453125 21.75 C 119.535156 21.878906 118.617188 22.03125 117.707031 22.214844 C 116.796875 22.394531 115.890625 22.601562 114.992188 22.832031 C 114.089844 23.0625 113.199219 23.320312 112.3125 23.605469 C 111.429688 23.886719 110.554688 24.195312 109.6875 24.527344 C 108.816406 24.859375 107.960938 25.214844 107.113281 25.597656 C 106.265625 25.976562 105.429688 26.382812 104.605469 26.8125 C 103.78125 27.242188 102.96875 27.691406 102.171875 28.167969 C 101.371094 28.640625 100.585938 29.140625 99.816406 29.660156 C 99.042969 30.179688 98.289062 30.71875 97.550781 31.28125 C 96.808594 31.84375 96.085938 32.425781 95.378906 33.03125 C 94.671875 33.632812 93.980469 34.257812 93.308594 34.898438 C 92.636719 35.542969 91.984375 36.203125 91.347656 36.882812 C 90.714844 37.5625 90.097656 38.261719 89.503906 38.976562 C 88.910156 39.691406 88.332031 40.421875 87.78125 41.167969 C 87.226562 41.914062 86.695312 42.679688 86.183594 43.457031 C 85.671875 44.234375 85.183594 45.023438 84.71875 45.832031 C 84.25 46.636719 83.808594 47.453125 83.386719 48.285156 C 82.96875 49.113281 82.574219 49.957031 82.199219 50.808594 C 81.828125 51.664062 81.480469 52.527344 81.15625 53.398438 C 80.832031 54.273438 80.535156 55.152344 80.261719 56.042969 C 79.988281 56.933594 79.738281 57.828125 79.515625 58.734375 C 79.292969 59.636719 79.097656 60.546875 78.925781 61.460938 C 78.753906 62.378906 78.609375 63.296875 78.488281 64.21875 C 78.367188 65.144531 78.273438 66.070312 78.207031 66.996094 C 78.140625 67.925781 78.101562 68.855469 78.085938 69.789062 C 78.070312 70.71875 78.082031 71.648438 78.121094 72.578125 C 78.15625 73.511719 78.222656 74.4375 78.3125 75.363281 C 78.402344 76.292969 78.519531 77.214844 78.664062 78.136719 C 78.804688 79.054688 78.972656 79.972656 79.167969 80.882812 C 79.363281 81.792969 79.582031 82.695312 79.828125 83.59375 C 80.074219 84.492188 80.34375 85.382812 80.640625 86.265625 C 80.9375 87.148438 81.257812 88.019531 81.601562 88.886719 C 81.949219 89.75 82.316406 90.605469 82.710938 91.449219 C 83.105469 92.289062 83.519531 93.121094 83.960938 93.941406 C 84.402344 94.761719 84.867188 95.566406 85.351562 96.363281 C 85.835938 97.15625 86.347656 97.933594 86.875 98.699219 C 87.40625 99.464844 87.957031 100.210938 88.53125 100.945312 C 89.101562 101.679688 89.695312 102.394531 90.308594 103.09375 C 90.921875 103.792969 91.554688 104.476562 92.207031 105.140625 C 92.855469 105.800781 93.527344 106.445312 94.214844 107.074219 C 94.902344 107.699219 95.609375 108.304688 96.328125 108.890625 C 97.050781 109.472656 97.789062 110.039062 98.542969 110.582031 C 99.296875 111.125 100.066406 111.648438 100.851562 112.148438 C 101.632812 112.648438 102.433594 113.125 103.242188 113.578125 C 104.054688 114.035156 104.875 114.464844 105.710938 114.871094 C 106.546875 115.28125 107.390625 115.664062 108.25 116.023438 C 109.105469 116.382812 109.972656 116.71875 110.847656 117.027344 C 111.722656 117.339844 112.605469 117.625 113.496094 117.886719 C 114.390625 118.144531 115.289062 118.378906 116.191406 118.589844 C 117.097656 118.796875 118.007812 118.980469 118.921875 119.140625 C 119.839844 119.296875 120.757812 119.429688 121.679688 119.535156 C 122.601562 119.640625 123.527344 119.71875 124.457031 119.769531 C 125.382812 119.824219 126.3125 119.851562 127.238281 119.851562 C 163.703125 120.304688 188.136719 79.65625 170.734375 47.59375 Z M 170.734375 47.59375 " fill-opacity="1" fill-rule="nonzero"/><path fill="#757ed1" d="M 127.238281 56.480469 C 128.769531 56.480469 130.261719 56.730469 131.707031 57.230469 C 131.925781 57.304688 132.152344 57.335938 132.386719 57.324219 C 132.617188 57.308594 132.839844 57.25 133.046875 57.148438 C 133.257812 57.046875 133.4375 56.90625 133.59375 56.734375 C 133.746094 56.558594 133.863281 56.359375 133.9375 56.140625 C 134.710938 53.027344 129.242188 53.148438 127.238281 52.960938 C 103.949219 53.925781 103.953125 87.203125 127.238281 88.164062 C 127.816406 88.164062 128.386719 88.136719 128.960938 88.078125 C 129.53125 88.023438 130.101562 87.9375 130.664062 87.824219 C 131.226562 87.710938 131.785156 87.570312 132.335938 87.402344 C 132.882812 87.234375 133.425781 87.042969 133.957031 86.820312 C 134.488281 86.601562 135.003906 86.355469 135.511719 86.082031 C 136.019531 85.808594 136.511719 85.515625 136.988281 85.195312 C 137.46875 84.875 137.929688 84.53125 138.371094 84.164062 C 138.816406 83.796875 139.242188 83.414062 139.648438 83.003906 C 140.054688 82.597656 140.441406 82.171875 140.804688 81.726562 C 141.171875 81.28125 141.511719 80.816406 141.832031 80.339844 C 142.152344 79.859375 142.445312 79.367188 142.71875 78.859375 C 142.988281 78.347656 143.234375 77.828125 143.457031 77.296875 C 143.675781 76.765625 143.871094 76.222656 144.035156 75.671875 C 144.203125 75.121094 144.34375 74.5625 144.457031 73.996094 C 144.570312 73.429688 144.652344 72.863281 144.710938 72.289062 C 144.769531 71.714844 144.796875 71.140625 144.796875 70.5625 C 144.617188 68.519531 144.738281 63.09375 141.644531 63.867188 C 141.425781 63.941406 141.226562 64.058594 141.050781 64.210938 C 140.878906 64.367188 140.738281 64.546875 140.636719 64.757812 C 140.535156 64.96875 140.476562 65.191406 140.464844 65.421875 C 140.449219 65.65625 140.480469 65.882812 140.554688 66.101562 C 141.046875 67.550781 141.292969 69.035156 141.285156 70.5625 C 140.582031 89.214844 113.898438 89.21875 113.195312 70.5625 C 113.195312 69.640625 113.285156 68.722656 113.464844 67.816406 C 113.648438 66.910156 113.914062 66.03125 114.265625 65.175781 C 114.621094 64.324219 115.054688 63.511719 115.566406 62.742188 C 116.078125 61.976562 116.660156 61.265625 117.3125 60.609375 C 117.964844 59.957031 118.671875 59.375 119.441406 58.859375 C 120.207031 58.347656 121.015625 57.914062 121.867188 57.558594 C 122.71875 57.203125 123.597656 56.9375 124.5 56.753906 C 125.40625 56.574219 126.316406 56.484375 127.238281 56.480469 Z M 127.238281 56.480469 " fill-opacity="1" fill-rule="nonzero"/><path fill="#757ed1" d="M 144.050781 43.695312 C 144.164062 43.488281 144.234375 43.273438 144.257812 43.039062 C 144.285156 42.808594 144.265625 42.578125 144.203125 42.355469 C 144.140625 42.128906 144.035156 41.925781 143.890625 41.746094 C 143.746094 41.5625 143.570312 41.414062 143.367188 41.300781 C 140.898438 39.929688 138.300781 38.890625 135.566406 38.183594 C 132.835938 37.476562 130.0625 37.121094 127.238281 37.121094 C 82.992188 38.953125 82.992188 102.175781 127.238281 104.007812 C 127.960938 104.007812 128.683594 103.984375 129.402344 103.9375 C 130.121094 103.890625 130.839844 103.824219 131.554688 103.730469 C 132.269531 103.636719 132.984375 103.519531 133.691406 103.378906 C 134.398438 103.242188 135.101562 103.078125 135.800781 102.894531 C 136.496094 102.707031 137.1875 102.5 137.871094 102.269531 C 138.554688 102.039062 139.230469 101.785156 139.898438 101.511719 C 140.566406 101.238281 141.226562 100.941406 141.875 100.625 C 142.523438 100.308594 143.160156 99.972656 143.785156 99.613281 C 144.414062 99.253906 145.027344 98.875 145.628906 98.476562 C 146.230469 98.078125 146.820312 97.660156 147.394531 97.222656 C 147.96875 96.785156 148.53125 96.332031 149.078125 95.859375 C 149.621094 95.382812 150.152344 94.894531 150.664062 94.386719 C 151.179688 93.878906 151.675781 93.355469 152.15625 92.8125 C 152.636719 92.273438 153.097656 91.71875 153.542969 91.148438 C 153.984375 90.578125 154.410156 89.992188 154.816406 89.394531 C 155.222656 88.796875 155.609375 88.1875 155.976562 87.566406 C 156.34375 86.941406 156.6875 86.308594 157.015625 85.660156 C 157.339844 85.015625 157.644531 84.359375 157.925781 83.695312 C 158.210938 83.03125 158.472656 82.355469 158.710938 81.671875 C 158.949219 80.992188 159.167969 80.300781 159.363281 79.605469 C 159.554688 78.90625 159.726562 78.207031 159.878906 77.5 C 160.027344 76.789062 160.152344 76.078125 160.257812 75.363281 C 160.359375 74.648438 160.4375 73.929688 160.496094 73.207031 C 160.550781 72.484375 160.585938 71.765625 160.597656 71.039062 C 160.605469 70.316406 160.59375 69.59375 160.554688 68.871094 C 160.519531 68.148438 160.457031 67.429688 160.375 66.710938 C 160.289062 65.992188 160.183594 65.277344 160.054688 64.566406 C 159.925781 63.855469 159.769531 63.148438 159.59375 62.445312 C 159.421875 61.742188 159.222656 61.046875 159 60.359375 C 158.78125 59.671875 158.539062 58.992188 158.273438 58.316406 C 158.007812 57.644531 157.722656 56.980469 157.414062 56.328125 C 157.105469 55.671875 156.777344 55.027344 156.429688 54.394531 C 156.316406 54.191406 156.167969 54.015625 155.984375 53.867188 C 155.804688 53.722656 155.601562 53.617188 155.375 53.550781 C 155.152344 53.488281 154.925781 53.46875 154.691406 53.496094 C 154.460938 53.519531 154.242188 53.589844 154.039062 53.703125 C 153.835938 53.816406 153.660156 53.964844 153.515625 54.148438 C 153.371094 54.332031 153.265625 54.535156 153.199219 54.761719 C 153.136719 54.988281 153.117188 55.214844 153.144531 55.449219 C 153.171875 55.679688 153.242188 55.898438 153.355469 56.101562 C 164.484375 75.453125 149.535156 100.875 127.238281 100.488281 C 126.261719 100.484375 125.289062 100.4375 124.316406 100.339844 C 123.34375 100.242188 122.378906 100.097656 121.417969 99.90625 C 120.460938 99.714844 119.515625 99.476562 118.578125 99.191406 C 117.644531 98.90625 116.726562 98.574219 115.824219 98.199219 C 114.917969 97.824219 114.039062 97.40625 113.175781 96.945312 C 112.3125 96.480469 111.476562 95.976562 110.664062 95.433594 C 109.851562 94.890625 109.070312 94.304688 108.3125 93.683594 C 107.558594 93.0625 106.835938 92.40625 106.144531 91.714844 C 105.453125 91.019531 104.796875 90.296875 104.175781 89.539062 C 103.558594 88.78125 102.976562 87.996094 102.433594 87.179688 C 101.890625 86.367188 101.386719 85.527344 100.925781 84.664062 C 100.464844 83.800781 100.046875 82.914062 99.671875 82.011719 C 99.296875 81.105469 98.96875 80.183594 98.683594 79.246094 C 98.402344 78.308594 98.164062 77.359375 97.972656 76.398438 C 97.78125 75.4375 97.636719 74.46875 97.539062 73.496094 C 97.441406 72.519531 97.394531 71.542969 97.390625 70.5625 C 97.011719 48.210938 122.359375 33.222656 141.664062 44.378906 C 141.867188 44.492188 142.085938 44.5625 142.316406 44.589844 C 142.546875 44.617188 142.777344 44.597656 143 44.535156 C 143.222656 44.46875 143.425781 44.363281 143.609375 44.21875 C 143.789062 44.074219 143.9375 43.898438 144.050781 43.695312 Z M 144.050781 43.695312 " fill-opacity="1" fill-rule="nonzero"/><path fill="#757ed1" d="M 173.171875 36.960938 L 160.386719 49.777344 C 160.046875 50.113281 159.636719 50.28125 159.160156 50.285156 L 159.019531 50.285156 L 150.609375 49.632812 L 128.488281 71.8125 C 128.320312 71.972656 128.128906 72.09375 127.914062 72.179688 C 127.699219 72.265625 127.476562 72.304688 127.246094 72.304688 C 127.019531 72.300781 126.796875 72.253906 126.582031 72.164062 C 126.371094 72.074219 126.183594 71.949219 126.019531 71.785156 C 125.859375 71.621094 125.730469 71.433594 125.640625 71.222656 C 125.554688 71.007812 125.507812 70.785156 125.503906 70.554688 C 125.503906 70.324219 125.542969 70.101562 125.628906 69.886719 C 125.710938 69.671875 125.835938 69.480469 125.992188 69.3125 L 148.117188 47.136719 L 147.464844 38.703125 C 147.429688 38.167969 147.601562 37.710938 147.976562 37.332031 L 160.757812 24.515625 C 161 24.277344 161.289062 24.121094 161.625 24.050781 C 161.960938 23.980469 162.285156 24.003906 162.605469 24.121094 C 162.925781 24.238281 163.191406 24.433594 163.398438 24.707031 C 163.609375 24.976562 163.726562 25.285156 163.757812 25.625 L 164.339844 33.371094 L 172.0625 33.949219 C 172.402344 33.984375 172.710938 34.101562 172.980469 34.3125 C 173.25 34.519531 173.445312 34.785156 173.5625 35.105469 C 173.683594 35.425781 173.707031 35.753906 173.632812 36.089844 C 173.5625 36.425781 173.410156 36.714844 173.171875 36.960938 Z M 173.171875 36.960938 " fill-opacity="1" fill-rule="nonzero"/></svg>