<svg xmlns="http://www.w3.org/2000/svg" xmlns:xlink="http://www.w3.org/1999/xlink" width="350" zoomAndPan="magnify" viewBox="0 0 262.5 135.000003" height="180" preserveAspectRatio="xMidYMid meet" version="1.0"><path fill="#da4167" d="M 248.578125 47.59375 C 248.464844 47.394531 248.320312 47.21875 248.140625 47.074219 C 247.960938 46.929688 247.761719 46.824219 247.539062 46.761719 C 247.320312 46.695312 247.09375 46.671875 246.867188 46.695312 C 246.636719 46.71875 246.421875 46.785156 246.21875 46.894531 C 246.015625 47 245.839844 47.144531 245.691406 47.320312 C 245.542969 47.5 245.4375 47.695312 245.367188 47.917969 C 245.296875 48.136719 245.273438 48.363281 245.289062 48.589844 C 245.308594 48.820312 245.371094 49.039062 245.476562 49.246094 C 261.625 79.007812 238.933594 116.761719 205.082031 116.328125 C 203.585938 116.328125 202.09375 116.253906 200.609375 116.105469 C 199.121094 115.957031 197.644531 115.734375 196.179688 115.441406 C 194.710938 115.148438 193.265625 114.78125 191.835938 114.347656 C 190.40625 113.910156 189 113.40625 187.621094 112.832031 C 186.238281 112.257812 184.890625 111.617188 183.570312 110.910156 C 182.253906 110.203125 180.972656 109.433594 179.730469 108.601562 C 178.488281 107.769531 177.289062 106.875 176.136719 105.925781 C 174.980469 104.972656 173.875 103.96875 172.816406 102.910156 C 171.761719 101.851562 170.757812 100.742188 169.808594 99.582031 C 168.859375 98.425781 167.972656 97.222656 167.140625 95.976562 C 166.308594 94.730469 165.542969 93.449219 164.835938 92.128906 C 164.132812 90.804688 163.492188 89.453125 162.921875 88.070312 C 162.347656 86.683594 161.84375 85.277344 161.410156 83.84375 C 160.972656 82.410156 160.609375 80.957031 160.316406 79.488281 C 160.023438 78.019531 159.804688 76.539062 159.65625 75.046875 C 159.507812 73.558594 159.433594 72.0625 159.433594 70.5625 C 159.007812 36.625 196.652344 13.875 226.34375 30.066406 C 226.550781 30.175781 226.769531 30.242188 227 30.265625 C 227.234375 30.285156 227.460938 30.261719 227.683594 30.195312 C 227.90625 30.125 228.105469 30.019531 228.285156 29.871094 C 228.464844 29.71875 228.609375 29.542969 228.71875 29.335938 C 228.828125 29.128906 228.894531 28.910156 228.917969 28.679688 C 228.9375 28.445312 228.914062 28.21875 228.847656 27.996094 C 228.777344 27.773438 228.671875 27.570312 228.523438 27.390625 C 228.375 27.210938 228.195312 27.066406 227.992188 26.957031 C 227.167969 26.523438 226.335938 26.113281 225.492188 25.726562 C 224.644531 25.339844 223.792969 24.976562 222.925781 24.640625 C 222.058594 24.300781 221.1875 23.988281 220.304688 23.699219 C 219.417969 23.410156 218.527344 23.148438 217.632812 22.910156 C 216.734375 22.671875 215.828125 22.460938 214.917969 22.273438 C 214.007812 22.089844 213.09375 21.929688 212.175781 21.792969 C 211.257812 21.660156 210.335938 21.550781 209.410156 21.46875 C 208.484375 21.386719 207.558594 21.332031 206.628906 21.300781 C 205.699219 21.273438 204.773438 21.269531 203.84375 21.292969 C 202.914062 21.316406 201.988281 21.367188 201.0625 21.441406 C 200.136719 21.519531 199.214844 21.621094 198.292969 21.75 C 197.375 21.878906 196.460938 22.03125 195.546875 22.214844 C 194.636719 22.394531 193.730469 22.601562 192.832031 22.832031 C 191.933594 23.0625 191.039062 23.320312 190.15625 23.605469 C 189.269531 23.886719 188.394531 24.195312 187.527344 24.527344 C 186.660156 24.859375 185.800781 25.214844 184.953125 25.597656 C 184.105469 25.976562 183.269531 26.382812 182.445312 26.8125 C 181.621094 27.242188 180.808594 27.691406 180.011719 28.167969 C 179.210938 28.640625 178.425781 29.140625 177.65625 29.660156 C 176.886719 30.179688 176.128906 30.71875 175.390625 31.28125 C 174.648438 31.84375 173.925781 32.425781 173.21875 33.03125 C 172.511719 33.632812 171.820312 34.257812 171.148438 34.898438 C 170.476562 35.542969 169.824219 36.203125 169.191406 36.882812 C 168.554688 37.5625 167.941406 38.261719 167.34375 38.976562 C 166.75 39.691406 166.175781 40.421875 165.621094 41.167969 C 165.066406 41.914062 164.535156 42.679688 164.023438 43.457031 C 163.511719 44.234375 163.023438 45.023438 162.558594 45.832031 C 162.09375 46.636719 161.648438 47.453125 161.230469 48.285156 C 160.808594 49.113281 160.414062 49.957031 160.042969 50.808594 C 159.667969 51.664062 159.320312 52.527344 158.996094 53.398438 C 158.675781 54.273438 158.375 55.152344 158.101562 56.042969 C 157.828125 56.933594 157.582031 57.828125 157.355469 58.734375 C 157.132812 59.636719 156.9375 60.546875 156.765625 61.460938 C 156.59375 62.378906 156.449219 63.296875 156.328125 64.21875 C 156.210938 65.144531 156.117188 66.070312 156.050781 66.996094 C 155.980469 67.925781 155.941406 68.855469 155.925781 69.789062 C 155.910156 70.71875 155.921875 71.648438 155.960938 72.578125 C 156 73.511719 156.0625 74.4375 156.152344 75.363281 C 156.246094 76.292969 156.359375 77.214844 156.503906 78.136719 C 156.644531 79.054688 156.816406 79.972656 157.007812 80.882812 C 157.203125 81.792969 157.421875 82.695312 157.667969 83.59375 C 157.914062 84.492188 158.183594 85.382812 158.480469 86.265625 C 158.777344 87.148438 159.097656 88.019531 159.441406 88.886719 C 159.789062 89.75 160.15625 90.605469 160.550781 91.449219 C 160.945312 92.289062 161.363281 93.121094 161.800781 93.941406 C 162.242188 94.761719 162.707031 95.566406 163.191406 96.363281 C 163.679688 97.15625 164.1875 97.933594 164.71875 98.699219 C 165.246094 99.464844 165.796875 100.210938 166.371094 100.945312 C 166.945312 101.679688 167.535156 102.394531 168.148438 103.09375 C 168.761719 103.792969 169.394531 104.476562 170.046875 105.140625 C 170.699219 105.800781 171.367188 106.445312 172.054688 107.074219 C 172.742188 107.699219 173.449219 108.304688 174.171875 108.890625 C 174.894531 109.472656 175.632812 110.039062 176.386719 110.582031 C 177.140625 111.125 177.910156 111.648438 178.691406 112.148438 C 179.476562 112.648438 180.273438 113.125 181.082031 113.578125 C 181.894531 114.035156 182.714844 114.464844 183.550781 114.871094 C 184.386719 115.28125 185.234375 115.664062 186.089844 116.023438 C 186.945312 116.382812 187.8125 116.71875 188.6875 117.027344 C 189.5625 117.339844 190.445312 117.625 191.339844 117.886719 C 192.230469 118.144531 193.128906 118.378906 194.035156 118.589844 C 194.9375 118.796875 195.847656 118.980469 196.765625 119.140625 C 197.679688 119.296875 198.597656 119.429688 199.523438 119.535156 C 200.445312 119.640625 201.371094 119.71875 202.296875 119.769531 C 203.222656 119.824219 204.152344 119.851562 205.082031 119.851562 C 241.542969 120.304688 265.980469 79.65625 248.578125 47.59375 Z M 248.578125 47.59375 " fill-opacity="1" fill-rule="nonzero"/><path fill="#da4167" d="M 205.082031 56.480469 C 206.613281 56.480469 208.101562 56.730469 209.546875 57.230469 C 209.769531 57.304688 209.996094 57.335938 210.226562 57.324219 C 210.460938 57.308594 210.679688 57.25 210.890625 57.148438 C 211.097656 57.046875 211.28125 56.90625 211.433594 56.734375 C 211.589844 56.558594 211.703125 56.359375 211.78125 56.140625 C 212.550781 53.027344 207.082031 53.148438 205.082031 52.960938 C 181.792969 53.925781 181.792969 87.203125 205.082031 88.164062 C 205.65625 88.164062 206.230469 88.136719 206.800781 88.078125 C 207.375 88.023438 207.941406 87.9375 208.503906 87.824219 C 209.070312 87.710938 209.625 87.570312 210.175781 87.402344 C 210.726562 87.234375 211.265625 87.042969 211.796875 86.820312 C 212.328125 86.601562 212.847656 86.355469 213.355469 86.082031 C 213.859375 85.808594 214.351562 85.515625 214.832031 85.195312 C 215.308594 84.875 215.769531 84.53125 216.214844 84.164062 C 216.660156 83.796875 217.082031 83.414062 217.488281 83.003906 C 217.898438 82.597656 218.28125 82.171875 218.648438 81.726562 C 219.011719 81.28125 219.355469 80.816406 219.671875 80.339844 C 219.992188 79.859375 220.289062 79.367188 220.558594 78.859375 C 220.832031 78.347656 221.078125 77.828125 221.296875 77.296875 C 221.515625 76.765625 221.710938 76.222656 221.878906 75.671875 C 222.046875 75.121094 222.183594 74.5625 222.296875 73.996094 C 222.410156 73.429688 222.496094 72.863281 222.550781 72.289062 C 222.609375 71.714844 222.636719 71.140625 222.636719 70.5625 C 222.460938 68.519531 222.578125 63.09375 219.484375 63.867188 C 219.265625 63.941406 219.066406 64.058594 218.894531 64.210938 C 218.71875 64.367188 218.582031 64.546875 218.480469 64.757812 C 218.375 64.96875 218.320312 65.191406 218.304688 65.421875 C 218.289062 65.65625 218.320312 65.882812 218.398438 66.101562 C 218.890625 67.550781 219.132812 69.035156 219.125 70.5625 C 218.421875 89.214844 191.738281 89.21875 191.035156 70.5625 C 191.035156 69.640625 191.125 68.722656 191.308594 67.816406 C 191.488281 66.910156 191.753906 66.03125 192.109375 65.175781 C 192.460938 64.324219 192.894531 63.511719 193.40625 62.742188 C 193.917969 61.976562 194.5 61.265625 195.152344 60.609375 C 195.804688 59.957031 196.515625 59.375 197.28125 58.859375 C 198.046875 58.347656 198.855469 57.914062 199.707031 57.558594 C 200.558594 57.203125 201.4375 56.9375 202.34375 56.753906 C 203.246094 56.574219 204.160156 56.484375 205.082031 56.480469 Z M 205.082031 56.480469 " fill-opacity="1" fill-rule="nonzero"/><path fill="#da4167" d="M 221.890625 43.695312 C 222.003906 43.488281 222.074219 43.273438 222.101562 43.039062 C 222.128906 42.808594 222.109375 42.578125 222.042969 42.355469 C 221.980469 42.128906 221.875 41.925781 221.730469 41.746094 C 221.585938 41.5625 221.410156 41.414062 221.207031 41.300781 C 218.738281 39.929688 216.140625 38.890625 213.410156 38.183594 C 210.679688 37.476562 207.902344 37.121094 205.082031 37.121094 C 160.832031 38.953125 160.832031 102.175781 205.082031 104.007812 C 205.800781 104.007812 206.523438 103.984375 207.242188 103.9375 C 207.964844 103.890625 208.679688 103.824219 209.398438 103.730469 C 210.113281 103.636719 210.824219 103.519531 211.53125 103.378906 C 212.238281 103.242188 212.941406 103.078125 213.640625 102.894531 C 214.339844 102.707031 215.027344 102.5 215.710938 102.269531 C 216.398438 102.039062 217.074219 101.785156 217.738281 101.511719 C 218.40625 101.238281 219.066406 100.941406 219.714844 100.625 C 220.363281 100.308594 221 99.972656 221.628906 99.613281 C 222.253906 99.253906 222.867188 98.875 223.46875 98.476562 C 224.074219 98.078125 224.660156 97.660156 225.234375 97.222656 C 225.8125 96.785156 226.371094 96.332031 226.917969 95.859375 C 227.464844 95.382812 227.992188 94.894531 228.507812 94.386719 C 229.019531 93.878906 229.515625 93.355469 229.996094 92.8125 C 230.476562 92.273438 230.9375 91.71875 231.382812 91.148438 C 231.828125 90.578125 232.25 89.992188 232.65625 89.394531 C 233.0625 88.796875 233.449219 88.1875 233.816406 87.566406 C 234.183594 86.941406 234.53125 86.308594 234.855469 85.660156 C 235.179688 85.015625 235.484375 84.359375 235.769531 83.695312 C 236.050781 83.03125 236.3125 82.355469 236.550781 81.671875 C 236.789062 80.992188 237.007812 80.300781 237.203125 79.605469 C 237.398438 78.90625 237.570312 78.207031 237.71875 77.5 C 237.867188 76.789062 237.996094 76.078125 238.097656 75.363281 C 238.199219 74.648438 238.28125 73.929688 238.335938 73.207031 C 238.394531 72.484375 238.425781 71.765625 238.4375 71.039062 C 238.445312 70.316406 238.433594 69.59375 238.394531 68.871094 C 238.359375 68.148438 238.300781 67.429688 238.214844 66.710938 C 238.132812 65.992188 238.023438 65.277344 237.894531 64.566406 C 237.765625 63.855469 237.613281 63.148438 237.4375 62.445312 C 237.261719 61.742188 237.0625 61.046875 236.84375 60.359375 C 236.621094 59.671875 236.378906 58.992188 236.113281 58.316406 C 235.847656 57.644531 235.5625 56.980469 235.253906 56.328125 C 234.949219 55.671875 234.617188 55.027344 234.269531 54.394531 C 234.15625 54.191406 234.007812 54.015625 233.828125 53.867188 C 233.644531 53.722656 233.441406 53.617188 233.21875 53.550781 C 232.992188 53.488281 232.765625 53.46875 232.535156 53.496094 C 232.300781 53.519531 232.082031 53.589844 231.878906 53.703125 C 231.675781 53.816406 231.5 53.964844 231.355469 54.148438 C 231.210938 54.332031 231.105469 54.535156 231.042969 54.761719 C 230.976562 54.988281 230.960938 55.214844 230.988281 55.449219 C 231.015625 55.679688 231.085938 55.898438 231.199219 56.101562 C 242.328125 75.453125 227.378906 100.875 205.082031 100.488281 C 204.101562 100.484375 203.128906 100.4375 202.15625 100.339844 C 201.183594 100.242188 200.21875 100.097656 199.261719 99.90625 C 198.300781 99.714844 197.355469 99.476562 196.421875 99.191406 C 195.484375 98.90625 194.566406 98.574219 193.664062 98.199219 C 192.761719 97.824219 191.878906 97.40625 191.015625 96.945312 C 190.15625 96.480469 189.320312 95.976562 188.507812 95.433594 C 187.695312 94.890625 186.910156 94.304688 186.15625 93.683594 C 185.398438 93.0625 184.675781 92.40625 183.984375 91.714844 C 183.292969 91.019531 182.636719 90.296875 182.019531 89.539062 C 181.398438 88.78125 180.816406 87.996094 180.273438 87.179688 C 179.730469 86.367188 179.226562 85.527344 178.765625 84.664062 C 178.304688 83.800781 177.886719 82.914062 177.515625 82.011719 C 177.140625 81.105469 176.808594 80.183594 176.527344 79.246094 C 176.242188 78.308594 176.003906 77.359375 175.8125 76.398438 C 175.621094 75.4375 175.476562 74.46875 175.378906 73.496094 C 175.285156 72.519531 175.234375 71.542969 175.234375 70.5625 C 174.851562 48.210938 200.203125 33.222656 219.503906 44.378906 C 219.707031 44.492188 219.925781 44.5625 220.15625 44.589844 C 220.390625 44.617188 220.617188 44.597656 220.839844 44.535156 C 221.066406 44.46875 221.265625 44.363281 221.449219 44.21875 C 221.632812 44.074219 221.777344 43.898438 221.890625 43.695312 Z M 221.890625 43.695312 " fill-opacity="1" fill-rule="nonzero"/><path fill="#da4167" d="M 251.011719 36.960938 L 238.230469 49.777344 C 237.886719 50.113281 237.480469 50.28125 237 50.285156 L 236.859375 50.285156 L 228.449219 49.632812 L 206.328125 71.8125 C 206.160156 71.972656 205.96875 72.09375 205.757812 72.179688 C 205.542969 72.265625 205.320312 72.304688 205.089844 72.304688 C 204.859375 72.300781 204.636719 72.253906 204.425781 72.164062 C 204.210938 72.074219 204.023438 71.949219 203.863281 71.785156 C 203.699219 71.621094 203.574219 71.433594 203.484375 71.222656 C 203.394531 71.007812 203.347656 70.785156 203.34375 70.554688 C 203.34375 70.324219 203.382812 70.101562 203.46875 69.886719 C 203.554688 69.671875 203.675781 69.480469 203.835938 69.3125 L 225.957031 47.136719 L 225.308594 38.703125 C 225.273438 38.167969 225.441406 37.710938 225.816406 37.332031 L 238.597656 24.515625 C 238.84375 24.277344 239.132812 24.121094 239.464844 24.050781 C 239.800781 23.980469 240.128906 24.003906 240.449219 24.121094 C 240.769531 24.238281 241.03125 24.433594 241.242188 24.707031 C 241.449219 24.976562 241.570312 25.285156 241.601562 25.625 L 242.179688 33.371094 L 249.90625 33.949219 C 250.246094 33.984375 250.550781 34.101562 250.820312 34.3125 C 251.09375 34.519531 251.285156 34.785156 251.40625 35.105469 C 251.523438 35.425781 251.546875 35.753906 251.476562 36.089844 C 251.402344 36.425781 251.25 36.714844 251.011719 36.960938 Z M 251.011719 36.960938 " fill-opacity="1" fill-rule="nonzero"/></svg>