<svg xmlns="http://www.w3.org/2000/svg" xmlns:xlink="http://www.w3.org/1999/xlink" width="560" zoomAndPan="magnify" viewBox="0 0 420 262.499992" height="350" preserveAspectRatio="xMidYMid meet" version="1.0"><defs><clipPath id="eba843355d"><path d="M 180 26.199219 L 240 26.199219 L 240 42 L 180 42 Z M 180 26.199219 " clip-rule="nonzero"/></clipPath><clipPath id="8a5af46dbd"><path d="M 105.199219 63 L 188 63 L 188 146 L 105.199219 146 Z M 105.199219 63 " clip-rule="nonzero"/></clipPath><clipPath id="b48cbea57e"><path d="M 232 123 L 314.800781 123 L 314.800781 206 L 232 206 Z M 232 123 " clip-rule="nonzero"/></clipPath><clipPath id="80e5df49a8"><path d="M 150 26.199219 L 270 26.199219 L 270 235.800781 L 150 235.800781 Z M 150 26.199219 " clip-rule="nonzero"/></clipPath></defs><g clip-path="url(#eba843355d)"><path fill="#ffffff" d="M 180.058594 37.429688 C 180.058594 39.488281 181.738281 41.171875 183.800781 41.171875 L 236.199219 41.171875 C 238.261719 41.171875 239.941406 39.488281 239.941406 37.429688 L 239.941406 26.199219 L 180.058594 26.199219 L 180.058594 37.429688 " fill-opacity="1" fill-rule="nonzero"/></g><g clip-path="url(#8a5af46dbd)"><path fill="#ffffff" d="M 146.371094 131 C 131.925781 131 120.171875 119.246094 120.171875 104.800781 C 120.171875 90.355469 131.925781 78.601562 146.371094 78.601562 C 160.816406 78.601562 172.570312 90.355469 172.570312 104.800781 C 172.570312 119.246094 160.816406 131 146.371094 131 Z M 154.367188 137.039062 C 157.570312 136.25 160.640625 134.960938 163.507812 133.253906 C 164.515625 132.625 165.789062 132.535156 166.898438 133.003906 L 173.433594 135.8125 C 174.164062 135.183594 174.851562 134.539062 175.511719 133.894531 C 176.125 133.253906 176.765625 132.578125 177.382812 131.863281 L 174.574219 125.328125 C 174.105469 124.230469 174.195312 122.960938 174.824219 121.9375 C 176.535156 119.070312 177.820312 116 178.609375 112.796875 C 178.902344 111.628906 179.734375 110.664062 180.847656 110.226562 L 187.441406 107.578125 C 187.511719 106.640625 187.542969 105.722656 187.542969 104.800781 C 187.542969 103.878906 187.511719 102.945312 187.441406 102.023438 L 180.847656 99.375 C 179.734375 98.9375 178.902344 97.972656 178.609375 96.804688 C 177.820312 93.601562 176.535156 90.53125 174.824219 87.664062 C 174.195312 86.640625 174.105469 85.371094 174.574219 84.273438 L 177.382812 77.738281 C 176.753906 77.007812 176.109375 76.320312 175.464844 75.660156 C 174.824219 75.046875 174.148438 74.402344 173.433594 73.789062 L 166.898438 76.597656 C 165.789062 77.066406 164.515625 76.976562 163.507812 76.347656 C 160.640625 74.636719 157.570312 73.351562 154.367188 72.5625 C 153.199219 72.269531 152.234375 71.4375 151.796875 70.324219 L 149.148438 63.730469 C 148.226562 63.65625 147.320312 63.613281 146.414062 63.613281 C 146.402344 63.613281 146.386719 63.628906 146.371094 63.628906 C 146.355469 63.628906 146.34375 63.613281 146.3125 63.613281 C 145.40625 63.613281 144.5 63.65625 143.59375 63.730469 L 140.945312 70.324219 C 140.507812 71.4375 139.542969 72.269531 138.375 72.5625 C 135.171875 73.351562 132.101562 74.636719 129.25 76.347656 C 128.226562 76.976562 126.953125 77.066406 125.84375 76.597656 L 119.308594 73.789062 C 118.578125 74.417969 117.890625 75.0625 117.230469 75.707031 C 116.617188 76.347656 115.976562 77.019531 115.359375 77.738281 L 118.152344 84.273438 C 118.636719 85.371094 118.546875 86.640625 117.917969 87.664062 C 116.195312 90.53125 114.921875 93.601562 114.132812 96.804688 C 113.855469 97.972656 113.007812 98.9375 111.894531 99.375 L 105.289062 102.023438 C 105.230469 102.957031 105.199219 103.878906 105.199219 104.800781 C 105.199219 105.722656 105.230469 106.65625 105.289062 107.578125 L 111.894531 110.226562 C 113.007812 110.664062 113.855469 111.628906 114.132812 112.796875 C 114.921875 116 116.195312 119.070312 117.917969 121.9375 C 118.546875 122.960938 118.636719 124.230469 118.152344 125.328125 L 115.359375 131.863281 C 115.988281 132.59375 116.632812 133.28125 117.289062 133.9375 C 117.917969 134.554688 118.59375 135.195312 119.308594 135.8125 L 125.84375 133.003906 C 126.953125 132.535156 128.226562 132.625 129.25 133.253906 C 132.101562 134.960938 135.171875 136.25 138.375 137.039062 C 139.542969 137.332031 140.507812 138.164062 140.945312 139.277344 L 143.59375 145.871094 C 145.480469 146.015625 147.308594 146.015625 149.148438 145.871094 L 151.796875 139.277344 C 152.234375 138.164062 153.199219 137.332031 154.367188 137.039062 " fill-opacity="1" fill-rule="nonzero"/></g><path fill="#ffffff" d="M 150.113281 86.464844 L 150.113281 123.132812 C 158.652344 121.394531 165.085938 113.835938 165.085938 104.800781 C 165.085938 95.765625 158.652344 88.207031 150.113281 86.464844 " fill-opacity="1" fill-rule="nonzero"/><g clip-path="url(#b48cbea57e)"><path fill="#ffffff" d="M 273.628906 190.886719 C 259.183594 190.886719 247.429688 179.132812 247.429688 164.6875 C 247.429688 150.242188 259.183594 138.484375 273.628906 138.484375 C 288.074219 138.484375 299.828125 150.242188 299.828125 164.6875 C 299.828125 179.132812 288.074219 190.886719 273.628906 190.886719 Z M 308.105469 159.261719 C 306.992188 158.824219 306.160156 157.859375 305.867188 156.6875 C 305.078125 153.488281 303.792969 150.417969 302.082031 147.550781 C 301.453125 146.527344 301.363281 145.253906 301.832031 144.160156 L 304.640625 137.625 C 304.011719 136.890625 303.367188 136.207031 302.722656 135.546875 C 302.082031 134.933594 301.40625 134.289062 300.691406 133.675781 L 294.15625 136.484375 C 293.046875 136.949219 291.773438 136.863281 290.765625 136.234375 C 287.898438 134.523438 284.828125 133.238281 281.625 132.449219 C 280.457031 132.15625 279.492188 131.320312 279.054688 130.210938 L 276.40625 123.617188 C 274.519531 123.472656 272.691406 123.472656 270.851562 123.617188 L 268.203125 130.210938 C 267.765625 131.320312 266.800781 132.15625 265.632812 132.449219 C 262.429688 133.238281 259.359375 134.523438 256.492188 136.234375 C 255.484375 136.863281 254.210938 136.949219 253.101562 136.484375 L 246.566406 133.675781 C 245.835938 134.304688 245.148438 134.949219 244.488281 135.589844 C 243.875 136.234375 243.234375 136.90625 242.617188 137.625 L 245.425781 144.160156 C 245.894531 145.253906 245.804688 146.527344 245.175781 147.550781 C 243.464844 150.417969 242.179688 153.488281 241.390625 156.6875 C 241.097656 157.859375 240.265625 158.824219 239.152344 159.261719 L 232.558594 161.910156 C 232.488281 162.84375 232.457031 163.765625 232.457031 164.6875 C 232.457031 165.605469 232.488281 166.542969 232.558594 167.464844 L 239.152344 170.109375 C 240.265625 170.550781 241.097656 171.515625 241.390625 172.683594 C 242.179688 175.886719 243.464844 178.957031 245.175781 181.820312 C 245.804688 182.84375 245.894531 184.117188 245.425781 185.214844 L 242.617188 191.75 C 243.246094 192.480469 243.890625 193.167969 244.535156 193.824219 C 245.175781 194.4375 245.851562 195.082031 246.566406 195.695312 L 253.101562 192.890625 C 254.210938 192.421875 255.484375 192.507812 256.492188 193.136719 C 259.359375 194.847656 262.429688 196.136719 265.632812 196.925781 C 266.800781 197.21875 267.765625 198.050781 268.203125 199.160156 L 270.851562 205.753906 C 272.738281 205.902344 274.566406 205.902344 276.40625 205.753906 L 279.054688 199.160156 C 279.492188 198.050781 280.457031 197.21875 281.625 196.925781 C 284.828125 196.136719 287.898438 194.847656 290.765625 193.136719 C 291.773438 192.507812 293.046875 192.421875 294.15625 192.890625 L 300.691406 195.695312 C 301.421875 195.066406 302.109375 194.425781 302.769531 193.78125 C 303.382812 193.136719 304.023438 192.464844 304.640625 191.75 L 301.832031 185.214844 C 301.363281 184.117188 301.453125 182.84375 302.082031 181.820312 C 303.792969 178.957031 305.078125 175.886719 305.867188 172.683594 C 306.160156 171.515625 306.992188 170.550781 308.105469 170.109375 L 314.699219 167.464844 C 314.769531 166.527344 314.800781 165.605469 314.800781 164.6875 C 314.800781 163.765625 314.769531 162.828125 314.699219 161.910156 L 308.105469 159.261719 " fill-opacity="1" fill-rule="nonzero"/></g><path fill="#ffffff" d="M 254.914062 164.6875 C 254.914062 173.722656 261.347656 181.28125 269.886719 183.019531 L 269.886719 146.351562 C 261.347656 148.09375 254.914062 155.652344 254.914062 164.6875 " fill-opacity="1" fill-rule="nonzero"/><g clip-path="url(#80e5df49a8)"><path fill="#ffffff" d="M 236.199219 228.316406 L 183.800781 228.316406 C 181.738281 228.316406 180.058594 226.632812 180.058594 224.570312 C 180.058594 222.511719 181.738281 220.828125 183.800781 220.828125 L 236.199219 220.828125 C 238.261719 220.828125 239.941406 222.511719 239.941406 224.570312 C 239.941406 226.632812 238.261719 228.316406 236.199219 228.316406 Z M 165.085938 41.171875 C 165.085938 43.234375 163.402344 44.914062 161.34375 44.914062 C 159.28125 44.914062 157.601562 43.234375 157.601562 41.171875 L 157.601562 37.429688 C 157.601562 35.367188 159.28125 33.6875 161.34375 33.6875 C 163.402344 33.6875 165.085938 35.367188 165.085938 37.429688 Z M 254.914062 37.429688 C 254.914062 35.367188 256.597656 33.6875 258.65625 33.6875 C 260.71875 33.6875 262.398438 35.367188 262.398438 37.429688 L 262.398438 41.171875 C 262.398438 43.234375 260.71875 44.914062 258.65625 44.914062 C 256.597656 44.914062 254.914062 43.234375 254.914062 41.171875 Z M 264.15625 209.191406 L 261.945312 203.664062 C 259.316406 202.890625 256.769531 201.824219 254.328125 200.507812 L 248.875 202.847656 C 246.625 203.8125 244.09375 203.429688 242.269531 201.867188 C 241.257812 201.046875 240.25 200.097656 239.253906 199.117188 C 238.21875 198.066406 237.265625 197.054688 236.390625 195.988281 C 234.882812 194.21875 234.503906 191.691406 235.46875 189.4375 L 237.808594 183.984375 C 236.492188 181.542969 235.425781 179 234.648438 176.367188 L 229.136719 174.175781 C 226.914062 173.269531 225.351562 171.191406 225.160156 168.851562 C 225.03125 167.507812 224.972656 166.089844 224.972656 164.6875 C 224.972656 163.28125 225.03125 161.863281 225.160156 160.460938 C 225.351562 158.179688 226.914062 156.105469 229.125 155.210938 L 234.648438 153.003906 C 235.425781 150.371094 236.492188 147.828125 237.808594 145.386719 L 235.46875 139.933594 C 234.503906 137.683594 234.882812 135.152344 236.449219 133.324219 C 237.265625 132.316406 238.21875 131.308594 239.199219 130.3125 C 240.25 129.273438 241.257812 128.324219 242.324219 127.449219 C 244.09375 125.941406 246.625 125.578125 248.875 126.527344 L 254.328125 128.867188 C 256.769531 127.550781 259.316406 126.484375 261.945312 125.707031 L 264.140625 120.195312 C 265.046875 117.972656 267.121094 116.410156 269.460938 116.21875 C 269.59375 116.203125 269.738281 116.203125 269.886719 116.191406 L 269.886719 33.6875 C 269.886719 29.5625 266.523438 26.199219 262.398438 26.199219 L 247.429688 26.199219 L 247.429688 37.429688 C 247.429688 43.628906 242.398438 48.65625 236.199219 48.65625 L 183.800781 48.65625 C 177.601562 48.65625 172.570312 43.628906 172.570312 37.429688 L 172.570312 26.199219 L 157.601562 26.199219 C 153.476562 26.199219 150.113281 29.5625 150.113281 33.6875 L 150.113281 56.304688 C 150.273438 56.320312 150.4375 56.320312 150.597656 56.332031 C 152.878906 56.523438 154.953125 58.085938 155.84375 60.296875 L 158.054688 65.820312 C 160.683594 66.597656 163.230469 67.664062 165.671875 68.980469 L 171.125 66.640625 C 173.375 65.675781 175.90625 66.054688 177.730469 67.621094 C 178.742188 68.4375 179.75 69.390625 180.746094 70.367188 C 181.78125 71.421875 182.734375 72.429688 183.609375 73.496094 C 185.117188 75.265625 185.496094 77.796875 184.53125 80.046875 L 182.191406 85.5 C 183.507812 87.941406 184.574219 90.488281 185.351562 93.117188 L 190.863281 95.3125 C 193.082031 96.21875 194.648438 98.292969 194.839844 100.632812 C 194.96875 101.980469 195.027344 103.398438 195.027344 104.800781 C 195.027344 106.203125 194.96875 107.621094 194.839844 109.027344 C 194.648438 111.304688 193.082031 113.382812 190.875 114.273438 L 185.351562 116.480469 C 184.574219 119.113281 183.507812 121.65625 182.191406 124.097656 L 184.53125 129.554688 C 185.496094 131.804688 185.117188 134.332031 183.550781 136.160156 C 182.734375 137.171875 181.78125 138.179688 180.800781 139.171875 C 179.75 140.210938 178.742188 141.160156 177.675781 142.039062 C 175.90625 143.546875 173.375 143.910156 171.125 142.960938 L 165.671875 140.621094 C 163.230469 141.9375 160.683594 143.003906 158.054688 143.777344 L 155.859375 149.289062 C 154.953125 151.511719 152.878906 153.078125 150.539062 153.269531 C 150.40625 153.28125 150.261719 153.28125 150.113281 153.296875 L 150.113281 228.316406 C 150.113281 232.4375 153.476562 235.800781 157.601562 235.800781 L 262.398438 235.800781 C 266.523438 235.800781 269.886719 232.4375 269.886719 228.316406 L 269.886719 213.183594 C 269.726562 213.152344 269.5625 213.167969 269.402344 213.152344 C 267.121094 212.949219 265.046875 211.398438 264.15625 209.191406 " fill-opacity="1" fill-rule="nonzero"/></g></svg>