<svg xmlns="http://www.w3.org/2000/svg" xmlns:xlink="http://www.w3.org/1999/xlink" width="560" zoomAndPan="magnify" viewBox="0 0 420 262.499992" height="350" preserveAspectRatio="xMidYMid meet" version="1.0"><defs><clipPath id="17dd775326"><path d="M 151.050781 144 L 269 144 L 269 235.800781 L 151.050781 235.800781 Z M 151.050781 144 " clip-rule="nonzero"/></clipPath><clipPath id="b7c138d27f"><path d="M 151.050781 72 L 269.324219 72 L 269.324219 190 L 151.050781 190 Z M 151.050781 72 " clip-rule="nonzero"/></clipPath><clipPath id="f1d7ddf256"><path d="M 151.050781 26.199219 L 269.324219 26.199219 L 269.324219 118 L 151.050781 118 Z M 151.050781 26.199219 " clip-rule="nonzero"/></clipPath></defs><g clip-path="url(#17dd775326)"><path fill="#ffffff" d="M 151.214844 144.878906 L 151.214844 222.445312 C 151.214844 229.632812 156.945312 235.511719 164.15625 235.511719 L 256.054688 235.511719 C 263.261719 235.511719 268.996094 229.632812 268.996094 222.445312 L 268.996094 144.878906 C 267.03125 146.023438 264.902344 146.675781 262.445312 146.839844 L 262.445312 202.851562 L 157.765625 202.851562 L 157.765625 146.839844 C 155.308594 146.675781 153.179688 146.023438 151.214844 144.878906 Z M 151.214844 144.878906 " fill-opacity="1" fill-rule="nonzero"/></g><g clip-path="url(#b7c138d27f)"><path fill="#ffffff" d="M 269.160156 127.734375 C 269.160156 124.140625 266.539062 121.203125 263.261719 121.203125 L 254.910156 121.203125 C 253.761719 115.8125 251.632812 110.75 248.683594 106.34375 L 254.582031 100.464844 C 256.875 98.179688 256.546875 94.257812 254.089844 91.808594 L 249.503906 87.074219 C 248.191406 85.765625 246.390625 84.949219 244.589844 84.949219 C 243.113281 84.949219 241.804688 85.441406 240.65625 86.582031 L 234.757812 92.460938 C 230.335938 89.523438 225.257812 87.398438 219.851562 86.257812 L 219.851562 77.929688 C 219.851562 74.664062 216.902344 72.050781 213.300781 72.050781 L 206.746094 72.050781 C 203.144531 72.050781 200.195312 74.664062 200.195312 77.929688 L 200.195312 86.257812 C 194.789062 87.398438 189.710938 89.523438 185.289062 92.460938 L 179.390625 86.582031 C 178.40625 85.605469 176.933594 84.949219 175.457031 84.949219 C 173.820312 84.949219 172.019531 85.605469 170.542969 87.074219 L 166.121094 91.808594 C 163.5 94.421875 163.335938 98.339844 165.628906 100.464844 L 171.527344 106.34375 C 168.578125 110.75 166.449219 115.8125 165.300781 121.203125 L 156.945312 121.203125 C 153.671875 121.203125 151.050781 124.140625 151.050781 127.734375 L 151.050781 134.265625 C 151.050781 137.859375 153.671875 140.796875 156.945312 140.796875 L 165.300781 140.796875 C 166.449219 146.1875 168.578125 151.25 171.527344 155.660156 L 165.628906 161.535156 C 163.335938 163.824219 163.664062 167.742188 166.121094 170.191406 L 170.707031 174.765625 C 172.019531 176.070312 173.820312 176.886719 175.621094 176.886719 C 177.097656 176.886719 178.40625 176.398438 179.554688 175.253906 L 185.449219 169.375 C 189.875 172.316406 194.953125 174.4375 200.359375 175.582031 L 200.359375 183.910156 C 200.359375 187.175781 203.308594 189.789062 206.910156 189.789062 L 213.464844 189.789062 C 217.066406 189.789062 220.015625 187.175781 220.015625 183.910156 L 220.015625 175.582031 C 225.421875 174.4375 230.5 172.316406 234.921875 169.375 L 240.820312 175.253906 C 241.804688 176.234375 243.277344 176.886719 244.753906 176.886719 C 246.390625 176.886719 248.191406 176.234375 249.667969 174.765625 L 254.253906 170.191406 C 256.875 167.578125 257.039062 163.660156 254.746094 161.535156 L 248.847656 155.660156 C 251.796875 151.25 253.925781 146.1875 255.074219 140.796875 L 263.425781 140.796875 C 266.703125 140.796875 269.324219 137.859375 269.324219 134.265625 L 269.324219 127.734375 Z M 210.1875 157.128906 C 195.769531 157.128906 183.976562 145.371094 183.976562 131 C 183.976562 116.628906 195.769531 104.871094 210.1875 104.871094 C 224.601562 104.871094 236.398438 116.628906 236.398438 131 C 236.398438 145.371094 224.601562 157.128906 210.1875 157.128906 Z M 210.1875 157.128906 " fill-opacity="1" fill-rule="nonzero"/></g><path fill="#ffffff" d="M 210.1875 111.40625 C 199.375 111.40625 190.527344 120.222656 190.527344 131 C 190.527344 141.777344 199.375 150.597656 210.1875 150.597656 C 221 150.597656 229.84375 141.777344 229.84375 131 C 229.84375 120.222656 221 111.40625 210.1875 111.40625 Z M 210.1875 111.40625 " fill-opacity="1" fill-rule="nonzero"/><g clip-path="url(#f1d7ddf256)"><path fill="#ffffff" d="M 269.160156 39.554688 C 269.160156 32.367188 263.261719 26.492188 256.21875 26.492188 L 164.15625 26.492188 C 156.945312 26.492188 151.214844 32.367188 151.214844 39.554688 L 151.214844 117.121094 C 153.179688 115.976562 155.308594 115.324219 157.765625 115.160156 L 157.765625 59.148438 L 262.609375 59.148438 L 262.609375 115.160156 C 265.066406 115.324219 267.195312 115.976562 269.160156 117.121094 Z M 197.082031 46.085938 C 195.28125 46.085938 193.804688 44.617188 193.804688 42.820312 C 193.804688 41.023438 195.28125 39.554688 197.082031 39.554688 C 198.882812 39.554688 200.359375 41.023438 200.359375 42.820312 C 200.359375 44.617188 198.882812 46.085938 197.082031 46.085938 Z M 210.1875 46.085938 C 208.386719 46.085938 206.910156 44.617188 206.910156 42.820312 C 206.910156 41.023438 208.386719 39.554688 210.1875 39.554688 C 211.988281 39.554688 213.464844 41.023438 213.464844 42.820312 C 213.464844 44.617188 211.988281 46.085938 210.1875 46.085938 Z M 223.292969 46.085938 C 221.492188 46.085938 220.015625 44.617188 220.015625 42.820312 C 220.015625 41.023438 221.492188 39.554688 223.292969 39.554688 C 225.09375 39.554688 226.570312 41.023438 226.570312 42.820312 C 226.570312 44.617188 225.09375 46.085938 223.292969 46.085938 Z M 223.292969 46.085938 " fill-opacity="1" fill-rule="nonzero"/></g></svg>