<svg xmlns="http://www.w3.org/2000/svg" xmlns:xlink="http://www.w3.org/1999/xlink" width="560" zoomAndPan="magnify" viewBox="0 0 420 262.499992" height="350" preserveAspectRatio="xMidYMid meet" version="1.0"><defs><clipPath id="24ba886495"><path d="M 150.132812 26.199219 L 269.90625 26.199219 L 269.90625 235.800781 L 150.132812 235.800781 Z M 150.132812 26.199219 " clip-rule="nonzero"/></clipPath><clipPath id="4dd3c84d5a"><path d="M 187 26.199219 L 233 26.199219 L 233 34 L 187 34 Z M 187 26.199219 " clip-rule="nonzero"/></clipPath></defs><path fill="#ffffff" d="M 245.460938 56.171875 L 174.578125 56.171875 L 210.019531 77.976562 Z M 245.460938 56.171875 " fill-opacity="1" fill-rule="nonzero"/><g clip-path="url(#24ba886495)"><path fill="#ffffff" d="M 254.933594 48.691406 C 259.054688 48.691406 262.417969 52.050781 262.417969 56.171875 L 262.417969 108.550781 C 262.417969 112.671875 259.054688 116.035156 254.933594 116.035156 L 165.105469 116.035156 C 160.980469 116.035156 157.617188 112.671875 157.617188 108.550781 L 157.617188 56.171875 C 157.617188 52.050781 160.980469 48.691406 165.105469 48.691406 Z M 258.71875 131 L 161.40625 131 C 159.328125 131 157.664062 129.320312 157.664062 127.257812 C 157.664062 125.199219 159.328125 123.519531 161.40625 123.519531 L 258.71875 123.519531 C 260.78125 123.519531 262.460938 125.199219 262.460938 127.257812 C 262.460938 129.320312 260.78125 131 258.71875 131 Z M 258.71875 145.964844 L 161.40625 145.964844 C 159.328125 145.964844 157.664062 144.285156 157.664062 142.226562 C 157.664062 140.164062 159.328125 138.484375 161.40625 138.484375 L 258.71875 138.484375 C 260.78125 138.484375 262.460938 140.164062 262.460938 142.226562 C 262.460938 144.285156 260.78125 145.964844 258.71875 145.964844 Z M 258.71875 164.671875 L 210.019531 164.671875 C 207.957031 164.671875 206.277344 162.992188 206.277344 160.933594 C 206.277344 158.871094 207.957031 157.191406 210.019531 157.191406 L 258.71875 157.191406 C 260.78125 157.191406 262.460938 158.871094 262.460938 160.933594 C 262.460938 162.992188 260.78125 164.671875 258.71875 164.671875 Z M 258.71875 179.640625 L 210.019531 179.640625 C 207.957031 179.640625 206.277344 177.957031 206.277344 175.898438 C 206.277344 173.835938 207.957031 172.15625 210.019531 172.15625 L 258.71875 172.15625 C 260.78125 172.15625 262.460938 173.835938 262.460938 175.898438 C 262.460938 177.957031 260.78125 179.640625 258.71875 179.640625 Z M 258.71875 198.347656 L 210.019531 198.347656 C 207.957031 198.347656 206.277344 196.664062 206.277344 194.605469 C 206.277344 192.542969 207.957031 190.863281 210.019531 190.863281 L 258.71875 190.863281 C 260.78125 190.863281 262.460938 192.542969 262.460938 194.605469 C 262.460938 196.664062 260.78125 198.347656 258.71875 198.347656 Z M 258.71875 213.3125 L 210.019531 213.3125 C 207.957031 213.3125 206.277344 211.628906 206.277344 209.570312 C 206.277344 207.507812 207.957031 205.828125 210.019531 205.828125 L 258.71875 205.828125 C 260.78125 205.828125 262.460938 207.507812 262.460938 209.570312 C 262.460938 211.628906 260.78125 213.3125 258.71875 213.3125 Z M 236.21875 228.277344 L 183.820312 228.277344 C 181.757812 228.277344 180.074219 226.597656 180.074219 224.535156 C 180.074219 222.476562 181.757812 220.792969 183.820312 220.792969 L 236.21875 220.792969 C 238.28125 220.792969 239.960938 222.476562 239.960938 224.535156 C 239.960938 226.597656 238.28125 228.277344 236.21875 228.277344 Z M 157.617188 205.828125 L 157.617188 194.605469 C 157.617188 190.484375 160.980469 187.121094 165.105469 187.121094 L 187.5625 187.121094 C 191.683594 187.121094 195.046875 190.484375 195.046875 194.605469 L 195.046875 205.828125 C 195.046875 209.949219 191.683594 213.3125 187.5625 213.3125 L 165.105469 213.3125 C 160.980469 213.3125 157.617188 209.949219 157.617188 205.828125 Z M 157.617188 160.933594 C 157.617188 156.808594 160.980469 153.449219 165.105469 153.449219 L 187.5625 153.449219 C 191.683594 153.449219 195.046875 156.808594 195.046875 160.933594 L 195.046875 172.15625 C 195.046875 176.277344 191.683594 179.640625 187.5625 179.640625 L 165.105469 179.640625 C 160.980469 179.640625 157.617188 176.277344 157.617188 172.15625 Z M 161.363281 26.242188 C 155.164062 26.242188 150.132812 31.269531 150.132812 37.464844 L 150.132812 224.535156 C 150.132812 230.730469 155.164062 235.761719 161.363281 235.761719 L 258.675781 235.761719 C 264.875 235.761719 269.90625 230.730469 269.90625 224.535156 L 269.90625 37.464844 C 269.90625 31.269531 264.875 26.242188 258.675781 26.242188 L 239.960938 26.242188 L 239.960938 29.984375 C 239.960938 36.179688 234.933594 41.207031 228.734375 41.207031 L 191.304688 41.207031 C 185.105469 41.207031 180.074219 36.179688 180.074219 29.984375 L 180.074219 26.242188 L 161.363281 26.242188 " fill-opacity="1" fill-rule="nonzero"/></g><g clip-path="url(#4dd3c84d5a)"><path fill="#ffffff" d="M 228.734375 33.722656 C 230.792969 33.722656 232.476562 32.042969 232.476562 29.984375 L 232.476562 26.242188 L 187.5625 26.242188 L 187.5625 29.984375 C 187.5625 32.042969 189.242188 33.722656 191.304688 33.722656 L 228.734375 33.722656 " fill-opacity="1" fill-rule="nonzero"/></g><path fill="#ffffff" d="M 165.105469 59.140625 L 165.105469 105.585938 L 202.882812 82.363281 Z M 165.105469 59.140625 " fill-opacity="1" fill-rule="nonzero"/><path fill="#ffffff" d="M 174.578125 108.550781 L 245.460938 108.550781 L 210.019531 86.746094 Z M 174.578125 108.550781 " fill-opacity="1" fill-rule="nonzero"/><path fill="#ffffff" d="M 254.949219 105.601562 L 254.933594 59.140625 L 217.152344 82.363281 Z M 254.949219 105.601562 " fill-opacity="1" fill-rule="nonzero"/><path fill="#ffffff" d="M 187.5625 160.933594 L 165.105469 160.933594 L 165.105469 172.15625 L 187.574219 172.15625 L 187.5625 160.933594 " fill-opacity="1" fill-rule="nonzero"/><path fill="#ffffff" d="M 187.5625 194.605469 L 165.105469 194.605469 L 165.105469 205.828125 L 187.574219 205.828125 L 187.5625 194.605469 " fill-opacity="1" fill-rule="nonzero"/></svg>