<svg xmlns="http://www.w3.org/2000/svg" xmlns:xlink="http://www.w3.org/1999/xlink" width="560" zoomAndPan="magnify" viewBox="0 0 420 262.499992" height="350" preserveAspectRatio="xMidYMid meet" version="1.0"><defs><clipPath id="b97c3a6eb7"><path d="M 150 26.199219 L 270 26.199219 L 270 235.800781 L 150 235.800781 Z M 150 26.199219 " clip-rule="nonzero"/></clipPath><clipPath id="6f950d0c0c"><path d="M 187 26.199219 L 233 26.199219 L 233 34 L 187 34 Z M 187 26.199219 " clip-rule="nonzero"/></clipPath><clipPath id="7e7c40783a"><path d="M 105.199219 86 L 166 86 L 166 176 L 105.199219 176 Z M 105.199219 86 " clip-rule="nonzero"/></clipPath><clipPath id="2d40064176"><path d="M 254 86 L 314.800781 86 L 314.800781 176 L 254 176 Z M 254 86 " clip-rule="nonzero"/></clipPath></defs><g clip-path="url(#b97c3a6eb7)"><path fill="#ffffff" d="M 236.199219 228.316406 L 183.800781 228.316406 C 181.738281 228.316406 180.058594 226.632812 180.058594 224.570312 C 180.058594 222.511719 181.738281 220.828125 183.800781 220.828125 L 236.199219 220.828125 C 238.261719 220.828125 239.941406 222.511719 239.941406 224.570312 C 239.941406 226.632812 238.261719 228.316406 236.199219 228.316406 Z M 184.222656 180.316406 L 214.167969 75.515625 C 215.878906 69.566406 222.121094 66.101562 228.054688 67.808594 C 234.007812 69.507812 237.472656 75.734375 235.777344 81.683594 L 205.832031 186.484375 C 204.457031 191.28125 200.015625 194.628906 195.027344 194.628906 C 193.992188 194.628906 192.953125 194.484375 191.929688 194.191406 C 185.992188 192.496094 182.527344 186.265625 184.222656 180.316406 Z M 258.65625 26.199219 L 239.941406 26.199219 L 239.941406 29.941406 C 239.941406 36.140625 234.914062 41.171875 228.714844 41.171875 L 191.285156 41.171875 C 185.085938 41.171875 180.058594 36.140625 180.058594 29.941406 L 180.058594 26.199219 L 161.34375 26.199219 C 155.144531 26.199219 150.113281 31.230469 150.113281 37.429688 L 150.113281 84.375 L 154.414062 81 C 159.207031 77.226562 166.402344 78.089844 170.171875 82.898438 C 173.929688 87.695312 173.082031 94.886719 168.273438 98.660156 C 168.257812 98.675781 150.113281 112.929688 150.113281 112.929688 L 150.113281 149.070312 L 168.273438 163.339844 C 173.082031 167.113281 173.945312 174.292969 170.171875 179.101562 C 166.402344 183.914062 159.207031 184.773438 154.414062 181.003906 C 154.398438 180.988281 150.113281 177.625 150.113281 177.625 L 150.113281 224.570312 C 150.113281 230.769531 155.144531 235.800781 161.34375 235.800781 L 258.65625 235.800781 C 264.855469 235.800781 269.886719 230.769531 269.886719 224.570312 L 269.886719 177.625 L 265.585938 181.003906 C 260.792969 184.773438 253.597656 183.925781 249.828125 179.101562 C 246.054688 174.292969 246.917969 167.128906 251.726562 163.339844 C 251.742188 163.339844 269.886719 149.070312 269.886719 149.070312 L 269.886719 112.929688 L 251.726562 98.660156 C 246.917969 94.886719 246.054688 87.695312 249.828125 82.898438 C 253.65625 78.03125 260.71875 77.183594 265.585938 81 L 269.886719 84.375 L 269.886719 37.429688 C 269.886719 31.230469 264.855469 26.199219 258.65625 26.199219 " fill-opacity="1" fill-rule="nonzero"/></g><g clip-path="url(#6f950d0c0c)"><path fill="#ffffff" d="M 191.285156 33.6875 L 228.714844 33.6875 C 230.777344 33.6875 232.457031 32.003906 232.457031 29.941406 L 232.457031 26.199219 L 187.542969 26.199219 L 187.542969 29.941406 C 187.542969 32.003906 189.222656 33.6875 191.285156 33.6875 " fill-opacity="1" fill-rule="nonzero"/></g><g clip-path="url(#7e7c40783a)"><path fill="#ffffff" d="M 105.199219 131 C 105.199219 132.140625 105.742188 133.238281 106.632812 133.9375 L 159.03125 175.109375 C 160.625 176.367188 163.023438 176.089844 164.28125 174.480469 C 165.539062 172.886719 165.246094 170.492188 163.652344 169.234375 C 163.535156 169.144531 118.738281 133.9375 118.738281 133.9375 C 117.847656 133.238281 117.320312 132.140625 117.320312 131 C 117.320312 129.859375 117.847656 128.761719 118.738281 128.0625 L 163.652344 92.769531 C 165.277344 91.496094 165.507812 89.082031 164.28125 87.519531 C 163.023438 85.910156 160.640625 85.617188 159.03125 86.890625 C 158.914062 86.964844 106.632812 128.0625 106.632812 128.0625 C 105.742188 128.761719 105.199219 129.859375 105.199219 131 " fill-opacity="1" fill-rule="nonzero"/></g><g clip-path="url(#2d40064176)"><path fill="#ffffff" d="M 260.96875 86.890625 C 259.375 85.632812 256.976562 85.925781 255.71875 87.519531 C 254.445312 89.128906 254.738281 91.496094 256.347656 92.769531 C 256.433594 92.839844 301.261719 128.0625 301.261719 128.0625 C 302.152344 128.761719 302.679688 129.859375 302.679688 131 C 302.679688 132.140625 302.152344 133.238281 301.261719 133.9375 L 256.347656 169.234375 C 254.753906 170.476562 254.460938 172.875 255.71875 174.480469 C 256.976562 176.074219 259.359375 176.382812 260.96875 175.109375 L 313.367188 133.9375 C 314.257812 133.238281 314.800781 132.140625 314.800781 131 C 314.800781 129.859375 314.257812 128.761719 313.367188 128.0625 L 260.96875 86.890625 " fill-opacity="1" fill-rule="nonzero"/></g><path fill="#ffffff" d="M 194.003906 186.996094 C 196.007812 187.554688 198.085938 186.355469 198.625 184.4375 L 228.566406 79.636719 C 229.136719 77.648438 227.984375 75.574219 225.996094 75.003906 C 224.050781 74.460938 221.929688 75.632812 221.375 77.578125 C 221.34375 77.636719 191.433594 182.363281 191.433594 182.363281 C 190.863281 184.351562 192.015625 186.425781 194.003906 186.996094 " fill-opacity="1" fill-rule="nonzero"/></svg>