<svg xmlns="http://www.w3.org/2000/svg" xmlns:xlink="http://www.w3.org/1999/xlink" width="350" zoomAndPan="magnify" viewBox="0 0 262.5 135.000003" height="180" preserveAspectRatio="xMidYMid meet" version="1.0"><defs><clipPath id="2dcc04bf8a"><path d="M 72.410156 15 L 190 15 L 190 120.835938 L 72.410156 120.835938 Z M 72.410156 15 " clip-rule="nonzero"/></clipPath></defs><g clip-path="url(#2dcc04bf8a)"><path fill="#757ed1" d="M 109.296875 46.578125 C 109.335938 46.625 109.375 46.671875 109.421875 46.714844 L 130.019531 67.285156 C 130.335938 67.597656 130.734375 67.773438 131.148438 67.8125 C 131.210938 67.820312 131.273438 67.820312 131.332031 67.820312 C 131.355469 67.820312 131.375 67.820312 131.394531 67.820312 C 131.859375 67.804688 132.304688 67.613281 132.632812 67.285156 L 153.230469 46.714844 C 153.273438 46.671875 153.316406 46.628906 153.351562 46.582031 L 156.976562 42.960938 C 163.371094 36.578125 163.371094 26.1875 156.976562 19.800781 C 150.582031 13.417969 140.179688 13.417969 133.78125 19.800781 L 131.328125 22.253906 L 128.871094 19.800781 C 122.476562 13.417969 112.070312 13.417969 105.675781 19.800781 C 99.28125 26.1875 99.28125 36.578125 105.675781 42.960938 Z M 108.265625 22.390625 C 110.671875 19.988281 113.871094 18.664062 117.273438 18.664062 C 120.675781 18.664062 123.871094 19.988281 126.277344 22.390625 L 130.03125 26.136719 C 130.375 26.480469 130.839844 26.671875 131.328125 26.671875 C 131.8125 26.671875 132.277344 26.480469 132.621094 26.136719 L 136.375 22.390625 C 138.78125 19.988281 141.980469 18.664062 145.378906 18.664062 C 148.78125 18.664062 151.980469 19.988281 154.386719 22.390625 C 159.351562 27.347656 159.351562 35.414062 154.386719 40.375 L 150.632812 44.121094 C 150.589844 44.164062 150.550781 44.210938 150.511719 44.257812 L 131.328125 63.414062 L 112.144531 44.257812 C 112.105469 44.210938 112.0625 44.164062 112.019531 44.121094 L 108.265625 40.375 C 103.300781 35.414062 103.300781 27.347656 108.265625 22.390625 Z M 189.464844 64.90625 C 186.160156 61.609375 181.191406 60.566406 176.863281 62.1875 C 175.539062 61.6875 174.125 61.425781 172.667969 61.425781 C 169.515625 61.425781 166.550781 62.640625 164.3125 64.851562 L 150.675781 76.386719 C 150.679688 76.238281 150.683594 76.09375 150.683594 75.945312 C 150.683594 74.933594 149.863281 74.117188 148.851562 74.117188 L 106.753906 74.117188 C 100.738281 74.117188 95.082031 76.457031 90.824219 80.703125 L 73.1875 98.3125 C 72.472656 99.03125 72.472656 100.1875 73.1875 100.902344 C 73.546875 101.257812 74.015625 101.4375 74.484375 101.4375 C 74.953125 101.4375 75.421875 101.257812 75.78125 100.902344 L 93.417969 83.292969 C 96.980469 79.734375 101.71875 77.777344 106.753906 77.777344 L 146.800781 77.777344 C 145.972656 81.199219 142.878906 83.753906 139.199219 83.753906 L 116.785156 83.753906 C 115.773438 83.753906 114.953125 84.574219 114.953125 85.585938 C 114.953125 86.59375 115.773438 87.414062 116.785156 87.414062 L 139.199219 87.414062 C 142.445312 87.414062 145.378906 86.058594 147.472656 83.890625 L 166.738281 67.597656 C 166.773438 67.5625 166.8125 67.53125 166.847656 67.492188 C 169.613281 64.734375 173.867188 64.351562 177.046875 66.34375 L 147.878906 95.472656 C 145.167969 98.179688 141.5625 99.667969 137.726562 99.667969 L 108.976562 99.667969 C 105.632812 99.667969 102.488281 100.96875 100.121094 103.332031 L 85.726562 117.707031 C 85.007812 118.421875 85.007812 119.578125 85.726562 120.292969 C 86.082031 120.652344 86.550781 120.832031 87.023438 120.832031 C 87.492188 120.832031 87.960938 120.652344 88.316406 120.292969 L 102.710938 105.921875 C 104.386719 104.25 106.609375 103.328125 108.976562 103.328125 L 146.113281 103.328125 C 150.925781 103.328125 155.449219 101.457031 158.855469 98.058594 L 189.464844 67.492188 C 190.179688 66.78125 190.179688 65.621094 189.464844 64.90625 Z M 156.261719 95.472656 C 154.242188 97.488281 151.726562 98.828125 148.988281 99.382812 C 149.503906 98.96875 150 98.53125 150.46875 98.058594 L 181.082031 67.492188 C 181.734375 66.839844 181.789062 65.8125 181.246094 65.097656 C 182.714844 65.132812 184.167969 65.558594 185.429688 66.347656 Z M 156.261719 95.472656 " fill-opacity="1" fill-rule="nonzero"/></g></svg>