<svg xmlns="http://www.w3.org/2000/svg" xmlns:xlink="http://www.w3.org/1999/xlink" width="350" zoomAndPan="magnify" viewBox="0 0 262.5 135.000003" height="180" preserveAspectRatio="xMidYMid meet" version="1.0"><path fill="#da4167" d="M 128.621094 65.324219 C 128.132812 65.324219 127.664062 65.144531 127.300781 64.816406 L 120.882812 59.054688 C 120.359375 58.582031 119.605469 58.46875 118.960938 58.761719 C 118.316406 59.058594 117.910156 59.707031 117.925781 60.414062 L 118.203125 74.261719 C 118.222656 75.226562 119.007812 76 119.976562 76 L 126.753906 76 C 127.777344 76 128.625 76.765625 128.730469 77.78125 L 130.941406 99.113281 C 131 99.644531 130.84375 100.160156 130.507812 100.570312 C 130.171875 100.980469 129.699219 101.242188 128.960938 101.304688 C 127.945312 101.304688 127.097656 100.539062 126.992188 99.523438 L 125.128906 81.566406 C 125.035156 80.660156 124.273438 79.972656 123.367188 79.972656 L 108.933594 79.972656 C 107.953125 79.972656 107.164062 80.769531 107.164062 81.75 L 107.164062 110.480469 C 107.164062 111.574219 106.273438 112.46875 105.179688 112.46875 C 104.082031 112.46875 103.191406 111.574219 103.191406 110.480469 L 103.160156 75.761719 C 103.191406 75.648438 103.25 75.371094 103.257812 75.25 C 103.261719 75.203125 103.246094 74.921875 103.246094 74.875 L 102.996094 62.589844 C 102.980469 61.839844 102.496094 61.179688 101.785156 60.941406 C 101.601562 60.878906 101.410156 60.851562 101.222656 60.851562 C 100.691406 60.851562 100.171875 61.089844 99.832031 61.527344 L 96.183594 66.167969 C 96.070312 66.316406 95.976562 66.476562 95.914062 66.652344 L 90.558594 81.175781 C 90.191406 82.179688 88.984375 82.710938 88.011719 82.355469 C 86.984375 81.972656 86.457031 80.828125 86.832031 79.796875 L 92.386719 64.730469 C 92.46875 64.523438 92.570312 64.339844 92.695312 64.179688 L 101.332031 53.183594 C 101.714844 52.703125 102.28125 52.425781 102.894531 52.425781 L 118.683594 52.425781 C 119.175781 52.425781 119.644531 52.609375 120.011719 52.933594 L 128.875 60.898438 C 129.199219 61.191406 129.625 61.351562 130.058594 61.351562 L 140.675781 61.351562 C 141.773438 61.351562 142.660156 62.242188 142.660156 63.339844 C 142.660156 64.433594 141.773438 65.324219 140.675781 65.324219 Z M 135.882812 95.929688 C 135.3125 95.949219 134.742188 95.949219 134.179688 95.984375 L 132.253906 77.417969 C 131.964844 74.585938 129.597656 72.449219 126.753906 72.449219 L 121.714844 72.449219 L 121.550781 64.429688 L 124.933594 67.464844 C 125.949219 68.375 127.261719 68.875 128.621094 68.875 L 135.882812 68.875 Z M 110.707031 102.804688 L 110.707031 83.527344 L 121.765625 83.527344 L 123.238281 97.714844 C 118.703125 98.898438 114.472656 100.628906 110.707031 102.804688 Z M 103.546875 40.566406 C 103.492188 38.792969 104.128906 37.109375 105.339844 35.820312 C 106.554688 34.527344 108.195312 33.789062 109.960938 33.734375 C 110.027344 33.734375 110.097656 33.734375 110.164062 33.734375 C 113.722656 33.734375 116.671875 36.574219 116.777344 40.160156 C 116.832031 41.929688 116.199219 43.617188 114.984375 44.90625 C 113.773438 46.195312 112.132812 46.9375 110.367188 46.988281 C 108.574219 47.042969 106.914062 46.402344 105.628906 45.191406 C 104.339844 43.976562 103.597656 42.332031 103.546875 40.566406 Z M 139.425781 22.523438 C 145.796875 25.558594 150.9375 23.175781 155.535156 21.035156 C 160.34375 18.796875 164.527344 16.855469 170.164062 20.382812 L 170.164062 44.835938 C 163.78125 41.777344 158.644531 44.175781 154.042969 46.324219 C 149.238281 48.5625 145.054688 50.511719 139.425781 46.976562 Z M 179.796875 119.296875 C 174.53125 105.929688 158.082031 96.5 139.425781 95.929688 L 139.425781 68.875 L 140.675781 68.875 C 143.726562 68.875 146.207031 66.390625 146.207031 63.339844 C 146.207031 60.285156 143.726562 57.800781 140.675781 57.800781 L 139.425781 57.800781 L 139.425781 51 C 141.597656 52.039062 143.632812 52.476562 145.542969 52.476562 C 149.242188 52.476562 152.507812 50.957031 155.539062 49.542969 C 160.5625 47.199219 164.894531 45.179688 170.921875 49.390625 C 171.464844 49.769531 172.167969 49.816406 172.757812 49.507812 C 173.34375 49.203125 173.710938 48.59375 173.710938 47.933594 L 173.710938 19.429688 C 173.710938 18.847656 173.425781 18.304688 172.953125 17.972656 C 165.242188 12.597656 159.296875 15.371094 154.039062 17.8125 C 149.019531 20.148438 144.6875 22.167969 138.664062 17.972656 C 138.128906 17.597656 137.414062 17.550781 136.832031 17.859375 C 136.246094 18.164062 135.882812 18.769531 135.882812 19.429688 L 135.882812 57.800781 L 130.738281 57.800781 L 122.375 50.289062 C 121.359375 49.378906 120.046875 48.875 118.683594 48.875 L 115.6875 48.875 C 116.363281 48.4375 117.003906 47.941406 117.566406 47.339844 C 119.425781 45.359375 120.40625 42.769531 120.324219 40.054688 C 120.152344 34.445312 115.550781 30.082031 109.855469 30.183594 C 107.140625 30.269531 104.621094 31.402344 102.757812 33.386719 C 100.898438 35.367188 99.917969 37.957031 100 40.671875 C 100.082031 43.390625 101.21875 45.914062 103.195312 47.777344 C 103.636719 48.191406 104.113281 48.550781 104.605469 48.875 L 102.894531 48.875 C 101.1875 48.875 99.601562 49.644531 98.550781 50.988281 L 89.910156 61.984375 C 89.558594 62.425781 89.277344 62.929688 89.066406 63.488281 L 83.507812 78.570312 C 82.453125 81.433594 83.921875 84.625 86.777344 85.683594 C 89.523438 86.699219 92.851562 85.191406 93.882812 82.40625 L 99.140625 68.144531 L 99.550781 67.625 L 99.699219 74.910156 C 99.699219 74.933594 99.699219 74.964844 99.703125 75 C 99.671875 75.164062 99.648438 75.351562 99.648438 75.457031 L 99.648438 110.480469 C 99.648438 110.972656 99.734375 111.445312 99.855469 111.902344 C 98.023438 114.191406 96.546875 116.667969 95.511719 119.296875 C 95.152344 120.207031 95.597656 121.238281 96.507812 121.597656 C 97.425781 121.960938 98.453125 121.515625 98.808594 120.601562 C 99.589844 118.621094 100.675781 116.75 101.976562 114.980469 C 102.882812 115.628906 103.980469 116.019531 105.179688 116.019531 C 108.230469 116.019531 110.707031 113.535156 110.707031 110.480469 L 110.707031 106.910156 C 114.519531 104.445312 118.964844 102.519531 123.800781 101.234375 C 124.65625 103.542969 126.976562 105.117188 129.535156 104.828125 C 131.003906 104.675781 132.328125 103.957031 133.257812 102.8125 C 134.027344 101.867188 134.429688 100.71875 134.472656 99.523438 C 135.527344 99.460938 136.585938 99.425781 137.65625 99.425781 C 155.613281 99.425781 171.585938 108.132812 176.5 120.601562 C 176.773438 121.296875 177.445312 121.722656 178.152344 121.722656 C 178.367188 121.722656 178.585938 121.683594 178.800781 121.597656 C 179.710938 121.238281 180.160156 120.207031 179.796875 119.296875 " fill-opacity="1" fill-rule="nonzero"/></svg>